<svg width="288" height="37" viewBox="0 0 288 37" fill="none" xmlns="http://www.w3.org/2000/svg">
<path d="M280.151 36.1694L274.476 27.8961H242.55L236.928 36.1694H229.132L254.27 0H262.809L288 36.1694H280.151ZM245.732 23.229H271.294L258.513 4.50792L245.732 23.229Z" fill="white"/>
<path d="M183.075 36.1694V0H218.131C227.041 0 232.079 3.34116 232.079 11.7206C232.079 20.4182 227.041 24.0246 218.131 24.0246H189.545V36.1694H183.075ZM217.601 5.5686H189.545V18.4559H217.601C223.01 18.4559 225.397 16.5997 225.397 12.0388C225.397 7.31874 223.01 5.5686 217.601 5.5686Z" fill="white"/>
<path d="M115.95 36.1694H109.48V0H117.382L142.573 30.8129L167.765 0H175.561V36.1694H169.09V7.68998L145.755 36.1694H139.232L115.95 7.68998V36.1694Z" fill="white"/>
<path d="M102.356 30.8376L102.356 36.4346L59.9288 36.4346L59.9288 29.599L72.7594 18.1098L59.9288 6.84991L59.9288 0.106059L102.356 0.106057L102.356 5.703L66.5496 5.703L77.3711 15.3572L77.3711 21L66.5496 30.8376L102.356 30.8376Z" fill="white"/>
<path d="M21.7971 5.5686H0V0H50.0644V5.5686H28.2673V36.1694H21.7971V5.5686Z" fill="white"/>
</svg>
