<svg width="132" height="132" viewBox="0 0 132 132" fill="none" xmlns="http://www.w3.org/2000/svg">
<path d="M66 0C102.451 0 132 29.5492 132 66C132 102.451 102.451 132 66 132C29.5492 132 0 102.451 0 66C0 29.5492 29.5492 0 66 0ZM119.709 100.075C116.728 102.054 112.801 104.025 108.149 105.812C97.3361 109.967 82.4405 113.2 66 113.2C49.5595 113.2 34.6639 109.967 23.8506 105.812C19.1989 104.025 15.271 102.054 12.29 100.075C23.5734 117.823 43.4111 129.6 66 129.6C88.5887 129.6 108.426 117.823 119.709 100.075ZM2.41211 67.2002C2.57539 76.0229 4.53549 84.4061 7.94141 92H8.2002C8.2002 92.534 8.45208 93.2678 9.15527 94.1963C9.84964 95.1131 10.9138 96.1252 12.3506 97.1895C15.2216 99.3162 19.4361 101.545 24.7109 103.572C35.2514 107.622 49.8558 110.8 66 110.8C82.1442 110.8 96.7486 107.622 107.289 103.572C112.564 101.545 116.778 99.3162 119.649 97.1895C121.086 96.1252 122.15 95.1131 122.845 94.1963C123.548 93.2678 123.8 92.534 123.8 92H124.059C127.465 84.4061 129.425 76.0229 129.588 67.2002H2.41211ZM66 21.2002C49.8558 21.2002 35.2514 24.3776 24.7109 28.4277C19.4361 30.4546 15.2216 32.6838 12.3506 34.8105C10.9138 35.8748 9.84964 36.8869 9.15527 37.8037C8.45208 38.7322 8.2002 39.466 8.2002 40H7.94141C4.53549 47.5939 2.57539 55.9771 2.41211 64.7998H129.588C129.425 55.9771 127.465 47.5939 124.059 40H123.8C123.8 39.466 123.548 38.7322 122.845 37.8037C122.15 36.8869 121.086 35.8748 119.649 34.8105C116.778 32.6838 112.564 30.4546 107.289 28.4277C96.7486 24.3776 82.1442 21.2002 66 21.2002ZM66 2.40039C43.4114 2.40039 23.5735 14.1762 12.29 31.9238C15.2709 29.9449 19.1992 27.9748 23.8506 26.1875C34.6639 22.0326 49.5595 18.7998 66 18.7998C82.4405 18.7998 97.3361 22.0326 108.149 26.1875C112.8 27.9746 116.728 29.945 119.709 31.9238C108.426 14.1765 88.5884 2.40039 66 2.40039Z" fill="#D9D9D9"/>
<path d="M105.964 66C105.964 48.0765 101.225 31.9685 93.7074 20.4297C86.109 8.7671 76.1525 2.40039 66 2.40039C55.8475 2.40039 45.891 8.7671 38.2926 20.4297C30.7749 31.9685 26.0358 48.0765 26.0358 66C26.0358 83.9235 30.7749 100.032 38.2926 111.57C45.891 123.233 55.8475 129.6 66 129.6V132C42.2518 132 23 102.451 23 66C23 29.5492 42.2518 0 66 0C89.7482 0 109 29.5492 109 66C109 102.451 89.7482 132 66 132V129.6C76.1525 129.6 86.109 123.233 93.7074 111.57C101.225 100.032 105.964 83.9235 105.964 66Z" fill="#D9D9D9"/>
<path d="M67.5 1.5V130.5H64.5V1.5H67.5Z" fill="#D9D9D9"/>
</svg>
