<svg width="132" height="67" viewBox="0 0 132 67" fill="none" xmlns="http://www.w3.org/2000/svg">
<path d="M19.2341 45.7021C17.9475 44.4782 17.572 41.9068 18.108 40.0439C19.0374 41.2184 20.3252 41.5906 21.6591 41.8004C23.7183 42.1246 25.7406 42.0034 27.6535 41.024C27.8724 40.9119 28.0746 40.7626 28.3137 40.6117C28.4932 41.1535 28.5399 41.7005 28.4772 42.2574C28.3248 43.6134 27.6763 44.661 26.6448 45.4549C26.2323 45.7726 25.7959 46.0565 25.3699 46.3561C24.0612 47.2763 23.7072 48.3556 24.1989 49.9256C24.2106 49.9638 24.2211 50.0021 24.2475 50.0954C23.5793 49.7843 23.0913 49.3311 22.7194 48.7355C22.3266 48.1066 22.1397 47.4111 22.1299 46.6587C22.125 46.2924 22.125 45.9229 22.0777 45.5619C21.9621 44.6818 21.565 44.2876 20.8169 44.2648C20.0492 44.2417 19.4418 44.7354 19.2808 45.5133C19.2685 45.5729 19.2507 45.6318 19.2329 45.7012L19.2341 45.7021Z" fill="#2C2C2C"/>
<path d="M19.2341 45.7021C17.9475 44.4782 17.572 41.9068 18.108 40.0439C19.0374 41.2184 20.3252 41.5906 21.6591 41.8004C23.7183 42.1246 25.7406 42.0034 27.6535 41.024C27.8724 40.9119 28.0746 40.7626 28.3137 40.6117C28.4932 41.1535 28.5399 41.7005 28.4772 42.2574C28.3248 43.6134 27.6763 44.661 26.6448 45.4549C26.2323 45.7726 25.7959 46.0565 25.3699 46.3561C24.0612 47.2763 23.7072 48.3556 24.1989 49.9256C24.2106 49.9638 24.2211 50.0021 24.2475 50.0954C23.5793 49.7843 23.0913 49.3311 22.7194 48.7355C22.3266 48.1066 22.1397 47.4111 22.1299 46.6587C22.125 46.2924 22.125 45.9229 22.0777 45.5619C21.9621 44.6818 21.565 44.2876 20.8169 44.2648C20.0492 44.2417 19.4418 44.7354 19.2808 45.5133C19.2685 45.5729 19.2507 45.6318 19.2329 45.7012L19.2341 45.7021Z" fill="url(#paint0_linear_26_129)"/>
<path d="M11.8911 39.7335C11.8911 39.7335 15.7008 37.8024 19.5211 37.8024L22.4015 28.5261C22.5094 28.0775 22.8242 27.7727 23.1797 27.7727C23.5352 27.7727 23.85 28.0775 23.9579 28.5261L26.8383 37.8024C31.3628 37.8024 34.4684 39.7335 34.4684 39.7335C34.4684 39.7335 27.9972 21.3894 27.9846 21.3526C27.7988 20.8102 27.4853 20.4609 27.0626 20.4609H19.2975C18.8748 20.4609 18.5739 20.8102 18.3755 21.3526C18.3615 21.3887 11.8911 39.7335 11.8911 39.7335Z" fill="#2C2C2C"/>
<path d="M52.0581 33.8326C52.0581 35.4582 50.115 36.429 47.4247 36.429C45.6736 36.429 45.0545 35.9774 45.0545 35.0292C45.0545 34.0358 45.8231 33.5617 47.5739 33.5617C49.1542 33.5617 50.4992 33.5843 52.0581 33.7875V33.8326ZM52.0795 31.8233C51.1186 31.5975 49.6665 31.4621 47.937 31.4621C42.8978 31.4621 40.5278 32.7038 40.5278 35.5936C40.5278 38.5963 42.1505 39.7478 45.9085 39.7478C49.0901 39.7478 51.2465 38.9124 52.0368 36.8579H52.1646C52.1433 37.3546 52.1222 37.8513 52.1222 38.2351C52.1222 39.2962 52.2928 39.3865 53.1255 39.3865H57.0543C56.8408 38.7544 56.7129 36.9708 56.7129 35.4356C56.7129 33.7875 56.7767 32.5458 56.7767 30.8751C56.7767 27.466 54.8125 25.2986 48.6629 25.2986C46.0153 25.2986 43.0687 25.7727 40.8269 26.4726C41.0402 27.3982 41.3392 29.2721 41.4887 30.4912C43.4318 29.543 46.1862 29.1367 48.3215 29.1367C51.2678 29.1367 52.0795 29.8365 52.0795 31.2589V31.8233Z" fill="#2C2C2C"/>
<path d="M62.8589 34.781C62.3252 34.8487 61.599 34.8487 60.8517 34.8487C60.0618 34.8487 59.3359 34.8261 58.8446 34.7584C58.8446 34.939 58.8232 35.1422 58.8232 35.3228C58.8232 38.1449 60.5957 39.793 66.8305 39.793C72.7021 39.793 74.6025 38.1675 74.6025 35.3002C74.6025 32.591 73.3429 31.259 67.77 30.9655C63.4353 30.7623 63.0511 30.2656 63.0511 29.7012C63.0511 29.0465 63.6062 28.7078 66.5101 28.7078C69.5208 28.7078 70.3322 29.1368 70.3322 30.0399V30.243C70.7593 30.2205 71.528 30.1979 72.318 30.1979C73.0652 30.1979 73.8766 30.2205 74.3465 30.2656C74.3465 30.0624 74.3678 29.8818 74.3678 29.7238C74.3678 26.405 71.7199 25.3213 66.5955 25.3213C60.8304 25.3213 58.8873 26.7888 58.8873 29.656C58.8873 32.2298 60.4462 33.8328 65.9764 34.0811C70.0545 34.2166 70.503 34.6907 70.503 35.3454C70.503 36.0453 69.8412 36.3614 66.98 36.3614C63.6916 36.3614 62.8589 35.8872 62.8589 34.9164V34.781Z" fill="#2C2C2C"/>
<path d="M81.6502 22.8831C80.0916 24.3957 77.2945 25.9084 75.7358 26.3147C75.7572 27.1501 75.7572 28.6853 75.7572 29.5206L77.1877 29.5432C77.1663 31.1462 77.1449 33.0878 77.1449 34.3747C77.1449 37.3774 78.6608 39.6351 83.3797 39.6351C85.3655 39.6351 86.6894 39.4093 88.3335 39.0481C88.1626 37.9418 87.9704 36.2485 87.9063 34.9617C86.9244 35.3003 85.6859 35.4809 84.3192 35.4809C82.4188 35.4809 81.6502 34.9391 81.6502 33.3813C81.6502 32.0267 81.6502 30.7624 81.6716 29.5884C84.1059 29.611 86.5399 29.6561 87.9704 29.7013C87.949 28.5273 87.9917 26.834 88.0558 25.7052C85.9849 25.7503 83.6574 25.7729 81.7356 25.7729C81.757 24.7795 81.7784 23.8313 81.7997 22.8831H81.6502Z" fill="#2C2C2C"/>
<path d="M94.4032 28.8433C94.4245 27.6693 94.4459 26.676 94.4672 25.7051H90.1753C90.2394 27.6468 90.2394 29.6335 90.2394 32.5459C90.2394 35.4583 90.218 37.4677 90.1753 39.3867H95.0864C95.0009 38.0321 94.9796 35.7518 94.9796 33.8102C94.9796 30.7398 96.1754 29.8593 98.8871 29.8593C100.147 29.8593 101.044 30.0173 101.834 30.3108C101.855 29.1594 102.069 26.9243 102.197 25.9309C101.385 25.6826 100.488 25.5245 99.3994 25.5245C97.0722 25.502 95.364 26.4953 94.574 28.8659L94.4032 28.8433Z" fill="#2C2C2C"/>
<path d="M115.782 32.4556C115.782 34.9165 114.074 36.068 111.384 36.068C108.715 36.068 107.007 34.9842 107.007 32.4556C107.007 29.927 108.736 28.9788 111.384 28.9788C114.053 28.9788 115.782 29.9948 115.782 32.4556ZM120.245 32.3428C120.245 27.4436 116.572 25.2537 111.384 25.2537C106.174 25.2537 102.629 27.4436 102.629 32.3428C102.629 37.2194 105.939 39.8384 111.362 39.8384C116.828 39.8384 120.245 37.2194 120.245 32.3428Z" fill="#2C2C2C"/>
<defs>
<linearGradient id="paint0_linear_26_129" x1="17.8716" y1="50.0954" x2="30.4702" y2="44.3752" gradientUnits="userSpaceOnUse">
<stop stop-color="#D83333"/>
<stop offset="1" stop-color="#F041FF"/>
</linearGradient>
</defs>
</svg>
