<svg width="132" height="65" viewBox="0 0 132 65" fill="none" xmlns="http://www.w3.org/2000/svg">
<path d="M19.2341 44.3379C17.9475 43.1505 17.572 40.6559 18.108 38.8486C19.0374 39.988 20.3252 40.3491 21.6591 40.5526C23.7183 40.8672 25.7406 40.7496 27.6535 39.7994C27.8724 39.6907 28.0746 39.5458 28.3137 39.3995C28.4932 39.925 28.5399 40.4558 28.4772 40.996C28.3248 42.3116 27.6763 43.3279 26.6448 44.0981C26.2323 44.4063 25.7959 44.6817 25.3699 44.9724C24.0612 45.8651 23.7072 46.9121 24.1989 48.4353C24.2106 48.4724 24.2211 48.5095 24.2475 48.6001C23.5793 48.2982 23.0913 47.8586 22.7194 47.2807C22.3266 46.6706 22.1397 45.9959 22.1299 45.2659C22.125 44.9106 22.125 44.5521 22.0777 44.2019C21.9621 43.348 21.565 42.9656 20.8169 42.9435C20.0492 42.9211 19.4418 43.4 19.2808 44.1547C19.2685 44.2125 19.2507 44.2697 19.2329 44.337L19.2341 44.3379Z" fill="white"/>
<path d="M19.2341 44.3379C17.9475 43.1505 17.572 40.6559 18.108 38.8486C19.0374 39.988 20.3252 40.3491 21.6591 40.5526C23.7183 40.8672 25.7406 40.7496 27.6535 39.7994C27.8724 39.6907 28.0746 39.5458 28.3137 39.3995C28.4932 39.925 28.5399 40.4558 28.4772 40.996C28.3248 42.3116 27.6763 43.3279 26.6448 44.0981C26.2323 44.4063 25.7959 44.6817 25.3699 44.9724C24.0612 45.8651 23.7072 46.9121 24.1989 48.4353C24.2106 48.4724 24.2211 48.5095 24.2475 48.6001C23.5793 48.2982 23.0913 47.8586 22.7194 47.2807C22.3266 46.6706 22.1397 45.9959 22.1299 45.2659C22.125 44.9106 22.125 44.5521 22.0777 44.2019C21.9621 43.348 21.565 42.9656 20.8169 42.9435C20.0492 42.9211 19.4418 43.4 19.2808 44.1547C19.2685 44.2125 19.2507 44.2697 19.2329 44.337L19.2341 44.3379Z" fill="url(#paint0_linear_26_129)"/>
<path d="M11.8911 38.5474C11.8911 38.5474 15.7008 36.6739 19.5211 36.6739L22.4015 27.6746C22.5094 27.2393 22.8242 26.9436 23.1797 26.9436C23.5352 26.9436 23.85 27.2393 23.9579 27.6746L26.8383 36.6739C31.3628 36.6739 34.4684 38.5474 34.4684 38.5474C34.4684 38.5474 27.9972 20.7508 27.9846 20.7151C27.7988 20.189 27.4853 19.8501 27.0626 19.8501H19.2975C18.8748 19.8501 18.5739 20.189 18.3755 20.7151C18.3615 20.7502 11.8911 38.5474 11.8911 38.5474Z" fill="white"/>
<path d="M52.0581 32.8228C52.0581 34.3998 50.115 35.3416 47.4247 35.3416C45.6736 35.3416 45.0545 34.9035 45.0545 33.9836C45.0545 33.0199 45.8231 32.5599 47.5739 32.5599C49.1542 32.5599 50.4992 32.5818 52.0581 32.779V32.8228ZM52.0795 30.8734C51.1186 30.6544 49.6665 30.523 47.937 30.523C42.8978 30.523 40.5278 31.7276 40.5278 34.5312C40.5278 37.4443 42.1505 38.5614 45.9085 38.5614C49.0901 38.5614 51.2465 37.7509 52.0368 35.7577H52.1646C52.1433 36.2396 52.1222 36.7215 52.1222 37.0938C52.1222 38.1233 52.2928 38.2109 53.1255 38.2109H57.0543C56.8408 37.5976 56.7129 35.8672 56.7129 34.3779C56.7129 32.779 56.7767 31.5743 56.7767 29.9535C56.7767 26.6461 54.8125 24.5435 48.6629 24.5435C46.0153 24.5435 43.0687 25.0034 40.8269 25.6824C41.0402 26.5804 41.3392 28.3984 41.4887 29.5811C43.4318 28.6612 46.1862 28.267 48.3215 28.267C51.2678 28.267 52.0795 28.9459 52.0795 30.3258V30.8734Z" fill="white"/>
<path d="M62.8589 33.7427C62.3252 33.8084 61.599 33.8084 60.8517 33.8084C60.0618 33.8084 59.3358 33.7866 58.8446 33.7208C58.8446 33.8961 58.8232 34.0932 58.8232 34.2684C58.8232 37.0063 60.5957 38.6051 66.8305 38.6051C72.7021 38.6051 74.6025 37.0282 74.6025 34.2465C74.6025 31.6181 73.3429 30.3259 67.77 30.0412C63.4353 29.844 63.0511 29.3622 63.0511 28.8146C63.0511 28.1794 63.6062 27.8509 66.5101 27.8509C69.5208 27.8509 70.3322 28.267 70.3322 29.1431V29.3403C70.7593 29.3184 71.528 29.2965 72.318 29.2965C73.0652 29.2965 73.8766 29.3184 74.3465 29.3622C74.3465 29.165 74.3678 28.9898 74.3678 28.8365C74.3678 25.6168 71.7199 24.5654 66.5955 24.5654C60.8304 24.5654 58.8873 25.9891 58.8873 28.7708C58.8873 31.2677 60.4462 32.8228 65.9764 33.0638C70.0545 33.1952 70.503 33.6551 70.503 34.2903C70.503 34.9693 69.8412 35.276 66.98 35.276C63.6916 35.276 62.8589 34.816 62.8589 33.8742V33.7427Z" fill="white"/>
<path d="M81.6502 22.2C80.0916 23.6675 77.2945 25.135 75.7358 25.5292C75.7572 26.3396 75.7572 27.829 75.7572 28.6394L77.1877 28.6613C77.1663 30.2164 77.1449 32.1001 77.1449 33.3485C77.1449 36.2616 78.6608 38.4519 83.3797 38.4519C85.3655 38.4519 86.6894 38.2329 88.3335 37.8824C88.1626 36.8092 87.9704 35.1665 87.9063 33.918C86.9244 34.2465 85.6859 34.4218 84.3192 34.4218C82.4188 34.4218 81.6502 33.8961 81.6502 32.3848C81.6502 31.0706 81.6502 29.8441 81.6716 28.7051C84.1059 28.727 86.5399 28.7708 87.9704 28.8146C87.949 27.6757 87.9917 26.033 88.0558 24.9378C85.9849 24.9816 83.6574 25.0035 81.7356 25.0035C81.757 24.0398 81.7784 23.1199 81.7997 22.2H81.6502Z" fill="white"/>
<path d="M94.4032 27.9823C94.4245 26.8433 94.4459 25.8796 94.4672 24.9378H90.1753C90.2394 26.8214 90.2394 28.7489 90.2394 31.5744C90.2394 34.3998 90.218 36.3492 90.1753 38.2109H95.0864C95.0009 36.8968 94.9796 34.6846 94.9796 32.8009C94.9796 29.8221 96.1754 28.9679 98.8871 28.9679C100.147 28.9679 101.044 29.1212 101.834 29.406C101.855 28.2889 102.069 26.1205 102.197 25.1568C101.385 24.9159 100.488 24.7626 99.3994 24.7626C97.0722 24.7407 95.364 25.7044 94.574 28.0042L94.4032 27.9823Z" fill="white"/>
<path d="M115.782 31.4868C115.782 33.8742 114.074 34.9912 111.384 34.9912C108.715 34.9912 107.007 33.9399 107.007 31.4868C107.007 29.0336 108.736 28.1137 111.384 28.1137C114.053 28.1137 115.782 29.0994 115.782 31.4868ZM120.245 31.3772C120.245 26.6243 116.572 24.4998 111.384 24.4998C106.174 24.4998 102.629 26.6243 102.629 31.3772C102.629 36.1083 105.939 38.6491 111.362 38.6491C116.828 38.6491 120.245 36.1083 120.245 31.3772Z" fill="white"/>
<defs>
<linearGradient id="paint0_linear_26_129" x1="17.8716" y1="48.6001" x2="30.3371" y2="42.7661" gradientUnits="userSpaceOnUse">
<stop stop-color="#D83333"/>
<stop offset="1" stop-color="#F041FF"/>
</linearGradient>
</defs>
</svg>
