<svg width="130" height="65" viewBox="0 0 130 65" fill="none" xmlns="http://www.w3.org/2000/svg">
<g clip-path="url(#clip0_26_128)">
<path d="M34.2988 23.2424C34.2885 23.1774 34.2567 23.1176 34.2084 23.0728C34.1602 23.0279 34.0983 23.0006 34.0327 22.995C33.9224 22.9859 31.7613 22.9531 31.7613 22.9531C31.7613 22.9531 29.9543 21.1977 29.7758 21.0196C29.5972 20.841 29.2486 20.8947 29.1131 20.9351C29.1115 20.9361 28.7741 21.0404 28.2055 21.2164C28.0931 20.8482 27.9475 20.4909 27.7705 20.149C27.128 18.9212 26.1851 18.2722 25.0469 18.2702H25.0423C24.9634 18.2702 24.8855 18.2778 24.8061 18.2844C24.7727 18.2441 24.7385 18.2047 24.7034 18.166C24.2076 17.6348 23.5712 17.3768 22.8094 17.3996C21.3393 17.4416 19.8748 18.5034 18.6875 20.3893C17.8518 21.7167 17.2164 23.3841 17.0358 24.6751L14.1417 25.572C13.2893 25.8396 13.2625 25.8654 13.1512 26.6692C13.0683 27.2763 10.8384 44.5179 10.8384 44.5179L29.5254 47.7505L37.6244 45.7371C37.6244 45.7371 34.3195 23.3957 34.2988 23.2424ZM27.2692 21.5063L25.8193 21.955C25.8082 21.2108 25.7202 20.1748 25.3731 19.2799C26.4886 19.4914 27.0375 20.7535 27.2692 21.5063ZM24.8415 22.258L21.7217 23.2242C22.0232 22.0698 22.5949 20.92 23.2975 20.1667C23.5586 19.8859 23.9238 19.5738 24.3568 19.3952C24.7636 20.2441 24.8516 21.445 24.8415 22.258ZM22.8382 18.3779C23.1837 18.3703 23.4741 18.4462 23.7225 18.6096C23.3249 18.816 22.9409 19.1125 22.5807 19.499C21.6469 20.5006 20.9311 22.0561 20.6458 23.5566C19.7554 23.8323 18.8848 24.1024 18.083 24.3498C18.5889 21.9879 20.5689 18.4437 22.8382 18.3779Z" fill="#95BF47"/>
<path d="M34.0332 22.9963C33.9229 22.9867 31.7623 22.9538 31.7623 22.9538C31.7623 22.9538 29.9554 21.1989 29.7768 21.0209C29.7076 20.9566 29.6197 20.9162 29.5259 20.9055L29.5264 47.7497L37.6249 45.7373C37.6249 45.7373 34.3205 23.3969 34.2993 23.2437C34.289 23.1786 34.2572 23.1188 34.209 23.0738C34.1608 23.0289 34.0989 23.0014 34.0332 22.9958V22.9963Z" fill="#5E8E3E"/>
<path d="M25.0369 27.1599L24.096 30.6787C24.096 30.6787 23.0468 30.2017 21.8034 30.2796C19.9792 30.3954 19.96 31.5453 19.9787 31.8341C20.0779 33.4079 24.2179 33.7514 24.4506 37.4382C24.6333 40.3384 22.9123 42.3224 20.4325 42.4792C17.4554 42.6664 15.8169 40.911 15.8169 40.911L16.4477 38.2284C16.4477 38.2284 18.0969 39.4728 19.4172 39.3894C20.2797 39.3347 20.5883 38.6331 20.5569 38.1373C20.4274 36.0845 17.0558 36.2054 16.8428 32.8322C16.6632 29.9938 18.5274 27.1169 22.6411 26.8579C24.226 26.7557 25.0369 27.1599 25.0369 27.1599Z" fill="white"/>
<path d="M48.2894 34.5289C47.3585 34.023 46.8795 33.5976 46.8795 33.0118C46.8795 32.2671 47.5442 31.7886 48.5828 31.7886C49.7913 31.7886 50.8703 32.2939 50.8703 32.2939L51.7212 29.6862C51.7212 29.6862 50.9386 29.0741 48.6354 29.0741C45.4297 29.0741 43.2079 30.9099 43.2079 33.4903C43.2079 34.9538 44.2449 36.0713 45.6295 36.8691C46.7469 37.507 47.1461 37.9597 47.1461 38.6245C47.1461 39.316 46.5871 39.875 45.55 39.875C44.0041 39.875 42.5441 39.0767 42.5441 39.0767L41.6396 41.684C41.6396 41.684 42.9883 42.5885 45.2577 42.5885C48.5565 42.5885 50.9245 40.9656 50.9245 38.0392C50.9234 36.4709 49.727 35.3535 48.2894 34.5289ZM61.4325 29.0483C59.8096 29.0483 58.5323 29.8197 57.5484 30.9898L57.4952 30.963L58.9051 23.5939H55.2335L51.6686 42.3497H55.3402L56.5644 35.9383C57.043 33.5166 58.2935 32.0279 59.4641 32.0279C60.2887 32.0279 60.6084 32.5863 60.6084 33.3846C60.6084 33.8905 60.5553 34.5026 60.449 35.0075L59.066 42.3502H62.7376L64.1738 34.7682C64.3336 33.9694 64.4404 33.0128 64.4404 32.3734C64.4389 30.2978 63.3482 29.0478 61.433 29.0478L61.4325 29.0483ZM72.7387 29.0483C68.322 29.0483 65.3965 33.0386 65.3965 37.4812C65.3965 40.3277 67.1519 42.6153 70.4512 42.6153C74.7875 42.6153 77.714 38.7317 77.714 34.1824C77.714 31.5488 76.1706 29.0478 72.7387 29.0478V29.0483ZM70.9297 39.7966C69.6792 39.7966 69.147 38.7322 69.147 37.4018C69.147 35.3004 70.2382 31.8685 72.2334 31.8685C73.537 31.8685 73.9619 32.9865 73.9619 34.0766C73.9619 36.3379 72.8723 39.7966 70.9297 39.7966ZM87.105 29.0483C84.6268 29.0483 83.2204 31.2296 83.2204 31.2296H83.1678L83.3808 29.2612H80.1351C79.9758 30.5917 79.6824 32.6127 79.3905 34.1293L76.8363 47.5637H80.5079L81.5182 42.1367H81.5986C81.5986 42.1367 82.3519 42.6153 83.7536 42.6153C88.0632 42.6153 90.8829 38.1995 90.8829 33.7296C90.8829 31.2564 89.7917 29.0483 87.105 29.0483ZM83.5933 39.8487C82.6402 39.8487 82.0762 39.317 82.0762 39.317L82.6883 35.8851C83.1142 33.5976 84.3111 32.081 85.5884 32.081C86.7059 32.081 87.0514 33.118 87.0514 34.103C87.0514 36.4704 85.6416 39.8487 83.5933 39.8487ZM96.1238 23.7806C94.9537 23.7806 94.0224 24.7114 94.0224 25.9083C94.0224 26.9995 94.7139 27.7446 95.7514 27.7446H95.8046C96.9488 27.7446 97.9328 26.9727 97.9596 25.6164C97.9596 24.5521 97.2412 23.7806 96.1238 23.7806ZM90.9896 42.3497H94.6603L97.1618 29.3412H93.4634L90.9896 42.3497ZM106.5 29.3144H103.946L104.078 28.7022C104.291 27.4517 105.036 26.3348 106.26 26.3348C106.657 26.3357 107.052 26.3985 107.43 26.5209L108.148 23.6476C108.148 23.6476 107.51 23.3289 106.153 23.3289C104.849 23.3289 103.546 23.7012 102.562 24.5521C101.311 25.6164 100.726 27.1588 100.433 28.7022L100.328 29.3144H98.6243L98.0921 32.0815H99.7954L97.8533 42.3507H101.525L103.467 32.0815H105.994L106.5 29.3144ZM115.332 29.3417C115.332 29.3417 113.037 35.1238 112.006 38.28H111.953C111.883 37.2631 111.048 29.3412 111.048 29.3412H107.19L109.399 41.2853C109.453 41.5514 109.426 41.7118 109.319 41.8975C108.893 42.722 108.175 43.5208 107.324 44.1061C106.632 44.6115 105.861 44.9307 105.249 45.1431L106.26 48.2563C107.005 48.0969 108.548 47.4843 109.851 46.2611C111.528 44.6914 113.07 42.2703 114.666 38.9715L119.162 29.3402H115.332V29.3417Z" fill="white"/>
</g>
<defs>
<clipPath id="clip0_26_128">
<rect width="111.117" height="31.5127" fill="white" transform="translate(9.44189 16.7437)"/>
</clipPath>
</defs>
</svg>
