<svg width="130" height="67" viewBox="0 0 130 67" fill="none" xmlns="http://www.w3.org/2000/svg">
<g clip-path="url(#clip0_26_128)">
<path d="M34.2988 24.2424C34.2885 24.1774 34.2567 24.1176 34.2084 24.0728C34.1602 24.0279 34.0983 24.0006 34.0327 23.995C33.9224 23.9859 31.7613 23.9531 31.7613 23.9531C31.7613 23.9531 29.9543 22.1977 29.7758 22.0196C29.5972 21.841 29.2486 21.8947 29.1131 21.9351C29.1115 21.9361 28.7741 22.0404 28.2055 22.2164C28.0931 21.8482 27.9475 21.4909 27.7705 21.149C27.128 19.9212 26.1851 19.2722 25.0469 19.2702H25.0423C24.9634 19.2702 24.8855 19.2778 24.8061 19.2844C24.7727 19.2441 24.7385 19.2047 24.7034 19.166C24.2076 18.6348 23.5712 18.3768 22.8094 18.3996C21.3393 18.4416 19.8748 19.5034 18.6875 21.3893C17.8518 22.7167 17.2164 24.3841 17.0358 25.6751L14.1417 26.572C13.2893 26.8396 13.2625 26.8654 13.1512 27.6692C13.0683 28.2763 10.8384 45.5179 10.8384 45.5179L29.5254 48.7505L37.6244 46.7371C37.6244 46.7371 34.3195 24.3957 34.2988 24.2424ZM27.2692 22.5063L25.8193 22.955C25.8082 22.2108 25.7202 21.1748 25.3731 20.2799C26.4886 20.4914 27.0375 21.7535 27.2692 22.5063ZM24.8415 23.258L21.7217 24.2242C22.0232 23.0698 22.5949 21.92 23.2975 21.1667C23.5586 20.8859 23.9238 20.5738 24.3568 20.3952C24.7636 21.2441 24.8516 22.445 24.8415 23.258ZM22.8382 19.3779C23.1837 19.3703 23.4741 19.4462 23.7225 19.6096C23.3249 19.816 22.9409 20.1125 22.5807 20.499C21.6469 21.5006 20.9311 23.0561 20.6458 24.5566C19.7554 24.8323 18.8848 25.1024 18.083 25.3498C18.5889 22.9879 20.5689 19.4437 22.8382 19.3779Z" fill="#95BF47"/>
<path d="M34.0332 23.9963C33.9229 23.9867 31.7623 23.9538 31.7623 23.9538C31.7623 23.9538 29.9554 22.1989 29.7768 22.0209C29.7076 21.9566 29.6197 21.9162 29.5259 21.9055L29.5264 48.7497L37.6249 46.7373C37.6249 46.7373 34.3205 24.3969 34.2993 24.2437C34.289 24.1786 34.2572 24.1188 34.209 24.0738C34.1608 24.0289 34.0989 24.0014 34.0332 23.9958V23.9963Z" fill="#5E8E3E"/>
<path d="M25.0369 28.1599L24.096 31.6787C24.096 31.6787 23.0468 31.2017 21.8034 31.2796C19.9792 31.3954 19.96 32.5453 19.9787 32.8341C20.0779 34.4079 24.2179 34.7514 24.4506 38.4382C24.6333 41.3384 22.9123 43.3224 20.4325 43.4792C17.4554 43.6664 15.8169 41.911 15.8169 41.911L16.4477 39.2284C16.4477 39.2284 18.0969 40.4728 19.4172 40.3894C20.2797 40.3347 20.5883 39.6331 20.5569 39.1373C20.4274 37.0845 17.0558 37.2054 16.8428 33.8322C16.6632 30.9938 18.5274 28.1169 22.6411 27.8579C24.226 27.7557 25.0369 28.1599 25.0369 28.1599Z" fill="white"/>
<path d="M48.2894 35.5289C47.3585 35.023 46.8795 34.5976 46.8795 34.0118C46.8795 33.2671 47.5442 32.7886 48.5828 32.7886C49.7913 32.7886 50.8703 33.294 50.8703 33.294L51.7212 30.6862C51.7212 30.6862 50.9386 30.0741 48.6354 30.0741C45.4297 30.0741 43.2079 31.9099 43.2079 34.4903C43.2079 35.9538 44.2449 37.0713 45.6295 37.8691C46.7469 38.507 47.1461 38.9597 47.1461 39.6245C47.1461 40.316 46.5871 40.875 45.55 40.875C44.0041 40.875 42.5441 40.0767 42.5441 40.0767L41.6396 42.684C41.6396 42.684 42.9883 43.5885 45.2577 43.5885C48.5565 43.5885 50.9245 41.9656 50.9245 39.0392C50.9234 37.4709 49.727 36.3535 48.2894 35.5289ZM61.4325 30.0483C59.8096 30.0483 58.5323 30.8197 57.5484 31.9898L57.4952 31.963L58.9051 24.5939H55.2335L51.6686 43.3497H55.3402L56.5644 36.9383C57.043 34.5166 58.2935 33.0279 59.4641 33.0279C60.2887 33.0279 60.6084 33.5863 60.6084 34.3846C60.6084 34.8905 60.5553 35.5026 60.449 36.0075L59.066 43.3502H62.7376L64.1738 35.7682C64.3336 34.9694 64.4404 34.0128 64.4404 33.3734C64.4389 31.2978 63.3482 30.0478 61.433 30.0478L61.4325 30.0483ZM72.7387 30.0483C68.322 30.0483 65.3965 34.0386 65.3965 38.4812C65.3965 41.3277 67.1519 43.6153 70.4512 43.6153C74.7875 43.6153 77.714 39.7317 77.714 35.1824C77.714 32.5488 76.1706 30.0478 72.7387 30.0478V30.0483ZM70.9297 40.7966C69.6792 40.7966 69.147 39.7322 69.147 38.4018C69.147 36.3004 70.2382 32.8685 72.2334 32.8685C73.537 32.8685 73.9619 33.9865 73.9619 35.0766C73.9619 37.3379 72.8723 40.7966 70.9297 40.7966ZM87.105 30.0483C84.6268 30.0483 83.2204 32.2296 83.2204 32.2296H83.1678L83.3808 30.2612H80.1351C79.9758 31.5917 79.6824 33.6127 79.3905 35.1293L76.8363 48.5637H80.5079L81.5182 43.1367H81.5986C81.5986 43.1367 82.3519 43.6153 83.7536 43.6153C88.0632 43.6153 90.8829 39.1995 90.8829 34.7296C90.8829 32.2564 89.7917 30.0483 87.105 30.0483ZM83.5933 40.8487C82.6402 40.8487 82.0762 40.317 82.0762 40.317L82.6883 36.8851C83.1142 34.5976 84.3111 33.081 85.5884 33.081C86.7059 33.081 87.0514 34.118 87.0514 35.103C87.0514 37.4704 85.6416 40.8487 83.5933 40.8487ZM96.1238 24.7806C94.9537 24.7806 94.0224 25.7114 94.0224 26.9083C94.0224 27.9995 94.7139 28.7446 95.7514 28.7446H95.8046C96.9488 28.7446 97.9328 27.9727 97.9596 26.6164C97.9596 25.5521 97.2412 24.7806 96.1238 24.7806ZM90.9896 43.3497H94.6603L97.1618 30.3412H93.4634L90.9896 43.3497ZM106.5 30.3144H103.946L104.078 29.7022C104.291 28.4517 105.036 27.3348 106.26 27.3348C106.657 27.3357 107.052 27.3985 107.43 27.5209L108.148 24.6476C108.148 24.6476 107.51 24.3289 106.153 24.3289C104.849 24.3289 103.546 24.7012 102.562 25.5521C101.311 26.6164 100.726 28.1588 100.433 29.7022L100.328 30.3144H98.6243L98.0921 33.0815H99.7954L97.8533 43.3507H101.525L103.467 33.0815H105.994L106.5 30.3144ZM115.332 30.3417C115.332 30.3417 113.037 36.1238 112.006 39.28H111.953C111.883 38.2631 111.048 30.3412 111.048 30.3412H107.19L109.399 42.2853C109.453 42.5514 109.426 42.7118 109.319 42.8975C108.893 43.722 108.175 44.5208 107.324 45.1061C106.632 45.6115 105.861 45.9307 105.249 46.1431L106.26 49.2563C107.005 49.0969 108.548 48.4843 109.851 47.2611C111.528 45.6914 113.07 43.2703 114.666 39.9715L119.162 30.3402H115.332V30.3417Z" fill="#2C2C2C"/>
</g>
<defs>
<clipPath id="clip0_26_128">
<rect width="111.117" height="31.5127" fill="white" transform="translate(9.44189 17.7437)"/>
</clipPath>
</defs>
</svg>
