<svg width="120" height="65" viewBox="0 0 120 65" fill="none" xmlns="http://www.w3.org/2000/svg">
<g clip-path="url(#clip0_26_126)">
<path fill-rule="evenodd" clip-rule="evenodd" d="M43.6908 16.1218H51.1878L32.2152 49.077L13.144 16.1218H20.8383L32.2481 35.948L43.6908 16.1218Z" fill="white"/>
<path fill-rule="evenodd" clip-rule="evenodd" d="M36.1698 16.1218H42.6142L32.2201 34.0881L21.915 16.1218H28.2703L32.2201 23.0389L36.1698 16.1218Z" fill="white"/>
<path fill-rule="evenodd" clip-rule="evenodd" d="M55.6926 22.6201C55.6926 22.388 55.8242 22.1891 56.0872 22.0233C56.3503 21.8576 56.6462 21.7913 56.9421 21.7913C57.3367 21.7913 57.5997 21.957 57.6984 22.2554L61.973 36.7106L66.2475 22.2554C66.3462 21.957 66.6092 21.7913 66.9709 21.7913C67.2669 21.7913 67.5628 21.8907 67.8259 22.0565C68.0889 22.2223 68.2204 22.4212 68.2204 22.6533C68.2204 22.6533 68.2204 22.6864 68.2204 22.7196C68.2204 22.7527 68.2204 22.7859 68.2204 22.819L63.2882 38.9982C63.1238 39.4624 62.6635 39.6945 62.0059 39.6945C61.3153 39.6945 60.9208 39.4624 60.7564 38.9982L55.7584 22.819C55.6926 22.7196 55.6926 22.6533 55.6926 22.6201ZM68.4177 35.0861V28.7536C68.4177 28.5547 68.5164 28.3889 68.7136 28.2563C68.9109 28.1237 69.1411 28.0242 69.437 28.0242C69.7001 28.0242 69.9303 28.0905 70.1275 28.2563C70.3248 28.4221 70.4235 28.5879 70.4235 28.7536V35.0861C70.4235 35.8155 70.6865 36.4785 71.2455 37.0422C71.8045 37.6058 72.4621 37.9042 73.2184 37.9042C73.9747 37.9042 74.5994 37.6058 75.1584 37.0422C75.7174 36.4785 75.9804 35.8155 75.9804 35.0529V28.7205C75.9804 28.5547 76.0791 28.3889 76.2764 28.2232C76.4736 28.0905 76.7038 27.9911 76.9997 27.9911C77.2957 27.9911 77.5258 28.0574 77.7231 28.19C77.9204 28.3226 78.0191 28.4884 78.0191 28.6873V35.0198C78.0191 36.2796 77.5587 37.3737 76.6052 38.302C75.6516 39.2303 74.5336 39.6945 73.2184 39.6945C71.9031 39.6945 70.7852 39.2303 69.8316 38.302C68.8781 37.4069 68.4177 36.3128 68.4177 35.0861ZM79.6631 35.0198V32.4669C79.6631 31.207 80.1235 30.1461 81.077 29.2178C82.0306 28.3226 83.1814 27.8585 84.4967 27.8585C85.7462 27.8585 86.8642 28.2895 87.7848 29.1183C88.7055 29.9803 89.1658 31.0413 89.1658 32.3011C89.1658 32.7653 89.1001 33.1631 89.0014 33.4284C88.9028 33.7267 88.7055 33.9257 88.4753 34.0251C88.2452 34.1577 88.015 34.2241 87.8177 34.2572C87.6204 34.2904 87.3574 34.2904 86.9957 34.2904H81.6689V35.0198C81.6689 35.9149 81.9977 36.6112 82.6225 37.1748C83.2472 37.7052 84.1021 37.9705 85.1214 37.9705C85.6475 37.9705 86.1079 37.9042 86.5353 37.7384C86.9299 37.5726 87.2587 37.4068 87.4889 37.2742C87.7191 37.1085 87.9164 37.0422 88.0808 37.0422C88.3109 37.0422 88.5082 37.1416 88.6726 37.3405C88.837 37.5395 88.9028 37.7384 88.9028 37.9705C88.9028 38.3352 88.5411 38.733 87.7848 39.0977C87.0614 39.4956 86.1408 39.6945 85.0557 39.6945C83.4774 39.6945 82.1621 39.2635 81.1757 38.4015C80.1564 37.5726 79.6631 36.4454 79.6631 35.0198ZM81.7018 32.9974H86.2065C86.634 32.9974 86.897 32.931 87.0614 32.8316C87.193 32.7321 87.2916 32.5332 87.2916 32.2017C87.2916 31.4723 87.0286 30.8423 86.5025 30.2787C85.9764 29.7151 85.3187 29.4499 84.5296 29.4499C83.7733 29.4499 83.1157 29.7151 82.5567 30.2124C81.9977 30.7097 81.7347 31.3396 81.7347 32.1022L81.7018 32.9974ZM90.2181 38.4346C90.2181 38.0699 90.3496 37.7715 90.5797 37.5395C90.8099 37.2742 91.1387 37.1748 91.4675 37.1748C91.7964 37.1748 92.0923 37.3074 92.3553 37.5395C92.5855 37.8047 92.717 38.1031 92.717 38.4346C92.717 38.7662 92.5855 39.0646 92.3553 39.3298C92.1252 39.595 91.8292 39.6945 91.4675 39.6945C91.1058 39.6945 90.8099 39.5619 90.5797 39.3298C90.3167 39.0646 90.2181 38.7662 90.2181 38.4346ZM91.9936 44.2366C91.9936 43.9714 92.0594 43.7724 92.2238 43.6067C92.3882 43.4409 92.5855 43.3414 92.8157 43.3414C93.4404 43.3414 93.8679 43.1094 94.0652 42.6452C94.2625 42.181 94.3611 41.4848 94.3611 40.5233V28.7205C94.3611 28.5215 94.4597 28.3558 94.657 28.2232C94.8543 28.0905 95.0845 28.0242 95.3804 28.0242C95.6764 28.0242 95.9065 28.0905 96.1038 28.2232C96.3011 28.3558 96.3998 28.5215 96.3998 28.7205V40.5233C96.3998 41.949 96.1367 43.0431 95.5777 43.8719C95.0187 44.7008 94.1967 45.0986 93.0787 45.0986C92.3553 45.0986 91.9936 44.8334 91.9936 44.2366ZM94.0981 23.681C94.0981 23.3827 94.2296 23.1174 94.4597 22.8853C94.6899 22.6533 95.0187 22.5538 95.3475 22.5538C95.6764 22.5538 95.9723 22.6533 96.2353 22.8853C96.4655 23.1174 96.597 23.3827 96.597 23.681C96.597 23.9794 96.4655 24.2447 96.2353 24.5099C96.0052 24.742 95.7092 24.8746 95.3475 24.8746C94.9858 24.8746 94.7228 24.742 94.4597 24.5099C94.2296 24.2778 94.0981 24.0126 94.0981 23.681ZM97.8794 37.9042C97.8794 37.7052 97.9452 37.4732 98.0767 37.2742C98.2082 37.0753 98.3726 36.9758 98.5699 36.9758C98.7014 36.9758 98.8987 37.0753 99.1289 37.2742C99.3591 37.4732 99.7208 37.6721 100.181 37.8379C100.641 38.0368 101.168 38.1031 101.792 38.1031C102.614 38.1031 103.206 37.9705 103.568 37.6721C103.93 37.3737 104.127 37.009 104.127 36.578C104.127 36.0475 103.93 35.6165 103.502 35.3181C103.108 34.9866 102.614 34.7545 102.022 34.5887C101.431 34.423 100.839 34.2572 100.28 34.0583C99.6879 33.8594 99.1947 33.5278 98.8001 33.0968C98.4055 32.6327 98.1753 32.0359 98.1753 31.3065C98.1753 30.3782 98.5042 29.5825 99.1618 28.9194C99.8194 28.2563 100.806 27.9248 102.154 27.9248C103.009 27.9248 103.798 28.0574 104.521 28.3226C105.245 28.5879 105.607 28.8862 105.607 29.2178C105.607 29.4167 105.541 29.6156 105.376 29.8809C105.212 30.1129 105.048 30.2456 104.817 30.2456C104.752 30.2456 104.456 30.1129 103.897 29.8809C103.338 29.6488 102.779 29.5162 102.22 29.5162C101.463 29.5162 100.904 29.6819 100.543 30.0466C100.181 30.4113 99.9838 30.776 99.9838 31.2402C99.9838 31.7043 100.181 32.0359 100.609 32.3011C101.003 32.5663 101.529 32.7653 102.121 32.8979C102.713 33.0305 103.305 33.2294 103.897 33.4284C104.489 33.6273 104.982 33.992 105.376 34.5224C105.771 35.0198 106.001 35.6828 106.001 36.5117C106.001 37.5063 105.639 38.302 104.916 38.8988C104.193 39.4956 103.206 39.7608 101.924 39.7608C100.806 39.7608 99.8852 39.5619 99.096 39.164C98.274 38.733 97.8794 38.3352 97.8794 37.9042Z" fill="white"/>
</g>
<defs>
<clipPath id="clip0_26_126">
<rect width="97" height="37" fill="white" transform="translate(11.5 14)"/>
</clipPath>
</defs>
</svg>
