<svg width="120" height="67" viewBox="0 0 120 67" fill="none" xmlns="http://www.w3.org/2000/svg">
<g clip-path="url(#clip0_26_126)">
<path fill-rule="evenodd" clip-rule="evenodd" d="M43.6908 17.1218H51.1878L32.2152 50.077L13.144 17.1218H20.8383L32.2481 36.948L43.6908 17.1218Z" fill="#2C2C2C"/>
<path fill-rule="evenodd" clip-rule="evenodd" d="M36.1698 17.1218H42.6142L32.2201 35.0881L21.915 17.1218H28.2703L32.2201 24.0389L36.1698 17.1218Z" fill="#2C2C2C"/>
<path fill-rule="evenodd" clip-rule="evenodd" d="M55.6926 23.6201C55.6926 23.388 55.8242 23.1891 56.0872 23.0233C56.3503 22.8576 56.6462 22.7913 56.9421 22.7913C57.3367 22.7913 57.5997 22.957 57.6984 23.2554L61.973 37.7106L66.2475 23.2554C66.3462 22.957 66.6092 22.7913 66.9709 22.7913C67.2669 22.7913 67.5628 22.8907 67.8259 23.0565C68.0889 23.2223 68.2204 23.4212 68.2204 23.6533C68.2204 23.6533 68.2204 23.6864 68.2204 23.7196C68.2204 23.7527 68.2204 23.7859 68.2204 23.819L63.2882 39.9982C63.1238 40.4624 62.6635 40.6945 62.0059 40.6945C61.3153 40.6945 60.9208 40.4624 60.7564 39.9982L55.7584 23.819C55.6926 23.7196 55.6926 23.6533 55.6926 23.6201ZM68.4177 36.0861V29.7536C68.4177 29.5547 68.5164 29.3889 68.7136 29.2563C68.9109 29.1237 69.1411 29.0242 69.437 29.0242C69.7001 29.0242 69.9303 29.0905 70.1275 29.2563C70.3248 29.4221 70.4235 29.5879 70.4235 29.7536V36.0861C70.4235 36.8155 70.6865 37.4785 71.2455 38.0422C71.8045 38.6058 72.4621 38.9042 73.2184 38.9042C73.9747 38.9042 74.5994 38.6058 75.1584 38.0422C75.7174 37.4785 75.9804 36.8155 75.9804 36.0529V29.7205C75.9804 29.5547 76.0791 29.3889 76.2764 29.2232C76.4736 29.0905 76.7038 28.9911 76.9997 28.9911C77.2957 28.9911 77.5258 29.0574 77.7231 29.19C77.9204 29.3226 78.0191 29.4884 78.0191 29.6873V36.0198C78.0191 37.2796 77.5587 38.3737 76.6052 39.302C75.6516 40.2303 74.5336 40.6945 73.2184 40.6945C71.9031 40.6945 70.7852 40.2303 69.8316 39.302C68.8781 38.4069 68.4177 37.3128 68.4177 36.0861ZM79.6631 36.0198V33.4669C79.6631 32.207 80.1235 31.1461 81.077 30.2178C82.0306 29.3226 83.1814 28.8585 84.4967 28.8585C85.7462 28.8585 86.8642 29.2895 87.7848 30.1183C88.7055 30.9803 89.1658 32.0413 89.1658 33.3011C89.1658 33.7653 89.1001 34.1631 89.0014 34.4284C88.9028 34.7267 88.7055 34.9257 88.4753 35.0251C88.2452 35.1577 88.015 35.2241 87.8177 35.2572C87.6204 35.2904 87.3574 35.2904 86.9957 35.2904H81.6689V36.0198C81.6689 36.9149 81.9977 37.6112 82.6225 38.1748C83.2472 38.7052 84.1021 38.9705 85.1214 38.9705C85.6475 38.9705 86.1079 38.9042 86.5353 38.7384C86.9299 38.5726 87.2587 38.4068 87.4889 38.2742C87.7191 38.1085 87.9164 38.0422 88.0808 38.0422C88.3109 38.0422 88.5082 38.1416 88.6726 38.3405C88.837 38.5395 88.9028 38.7384 88.9028 38.9705C88.9028 39.3352 88.5411 39.733 87.7848 40.0977C87.0614 40.4956 86.1408 40.6945 85.0557 40.6945C83.4774 40.6945 82.1621 40.2635 81.1757 39.4015C80.1564 38.5726 79.6631 37.4454 79.6631 36.0198ZM81.7018 33.9974H86.2065C86.634 33.9974 86.897 33.931 87.0614 33.8316C87.193 33.7321 87.2916 33.5332 87.2916 33.2017C87.2916 32.4723 87.0286 31.8423 86.5025 31.2787C85.9764 30.7151 85.3187 30.4499 84.5296 30.4499C83.7733 30.4499 83.1157 30.7151 82.5567 31.2124C81.9977 31.7097 81.7347 32.3396 81.7347 33.1022L81.7018 33.9974ZM90.218 39.4346C90.218 39.0699 90.3496 38.7715 90.5797 38.5395C90.8099 38.2742 91.1387 38.1748 91.4675 38.1748C91.7964 38.1748 92.0923 38.3074 92.3553 38.5395C92.5855 38.8047 92.717 39.1031 92.717 39.4346C92.717 39.7662 92.5855 40.0646 92.3553 40.3298C92.1252 40.595 91.8292 40.6945 91.4675 40.6945C91.1058 40.6945 90.8099 40.5619 90.5797 40.3298C90.3167 40.0646 90.218 39.7662 90.218 39.4346ZM91.9936 45.2366C91.9936 44.9714 92.0594 44.7724 92.2238 44.6067C92.3882 44.4409 92.5855 44.3414 92.8157 44.3414C93.4404 44.3414 93.8679 44.1094 94.0652 43.6452C94.2625 43.181 94.3611 42.4848 94.3611 41.5233V29.7205C94.3611 29.5215 94.4597 29.3558 94.657 29.2232C94.8543 29.0905 95.0845 29.0242 95.3804 29.0242C95.6764 29.0242 95.9065 29.0905 96.1038 29.2232C96.3011 29.3558 96.3997 29.5215 96.3997 29.7205V41.5233C96.3997 42.949 96.1367 44.0431 95.5777 44.8719C95.0187 45.7008 94.1967 46.0986 93.0787 46.0986C92.3553 46.0986 91.9936 45.8334 91.9936 45.2366ZM94.098 24.681C94.098 24.3827 94.2296 24.1174 94.4597 23.8853C94.6899 23.6533 95.0187 23.5538 95.3475 23.5538C95.6764 23.5538 95.9723 23.6533 96.2353 23.8853C96.4655 24.1174 96.597 24.3827 96.597 24.681C96.597 24.9794 96.4655 25.2447 96.2353 25.5099C96.0052 25.742 95.7092 25.8746 95.3475 25.8746C94.9858 25.8746 94.7228 25.742 94.4597 25.5099C94.2296 25.2778 94.098 25.0126 94.098 24.681ZM97.8794 38.9042C97.8794 38.7052 97.9452 38.4732 98.0767 38.2742C98.2082 38.0753 98.3726 37.9758 98.5699 37.9758C98.7014 37.9758 98.8987 38.0753 99.1289 38.2742C99.3591 38.4732 99.7208 38.6721 100.181 38.8379C100.641 39.0368 101.168 39.1031 101.792 39.1031C102.614 39.1031 103.206 38.9705 103.568 38.6721C103.93 38.3737 104.127 38.009 104.127 37.578C104.127 37.0475 103.93 36.6165 103.502 36.3181C103.108 35.9866 102.614 35.7545 102.022 35.5887C101.431 35.423 100.839 35.2572 100.28 35.0583C99.6879 34.8594 99.1947 34.5278 98.8001 34.0968C98.4055 33.6327 98.1753 33.0359 98.1753 32.3065C98.1753 31.3782 98.5042 30.5825 99.1618 29.9194C99.8194 29.2563 100.806 28.9248 102.154 28.9248C103.009 28.9248 103.798 29.0574 104.521 29.3226C105.245 29.5879 105.607 29.8862 105.607 30.2178C105.607 30.4167 105.541 30.6156 105.376 30.8809C105.212 31.1129 105.048 31.2456 104.817 31.2456C104.752 31.2456 104.456 31.1129 103.897 30.8809C103.338 30.6488 102.779 30.5162 102.22 30.5162C101.463 30.5162 100.904 30.6819 100.543 31.0466C100.181 31.4113 99.9838 31.776 99.9838 32.2402C99.9838 32.7043 100.181 33.0359 100.609 33.3011C101.003 33.5663 101.529 33.7653 102.121 33.8979C102.713 34.0305 103.305 34.2294 103.897 34.4284C104.489 34.6273 104.982 34.992 105.376 35.5224C105.771 36.0198 106.001 36.6828 106.001 37.5117C106.001 38.5063 105.639 39.302 104.916 39.8988C104.193 40.4956 103.206 40.7608 101.924 40.7608C100.806 40.7608 99.8852 40.5619 99.096 40.164C98.274 39.733 97.8794 39.3352 97.8794 38.9042Z" fill="#2C2C2C"/>
</g>
<defs>
<clipPath id="clip0_26_126">
<rect width="97" height="37" fill="white" transform="translate(11.5 15)"/>
</clipPath>
</defs>
</svg>
