<svg width="178" height="65" viewBox="0 0 178 65" fill="none" xmlns="http://www.w3.org/2000/svg">
<g clip-path="url(#clip0_26_127)">
<path fill-rule="evenodd" clip-rule="evenodd" d="M10.6602 15.5837C26.0835 15.5838 41.4978 15.5838 56.9025 15.5837C59.2368 15.7489 60.8514 16.9102 61.7455 19.0675C61.9038 19.5125 62.004 19.9703 62.0461 20.4409C62.0685 26.6044 62.0685 32.768 62.0461 38.9315C61.8009 40.9601 60.7712 42.4284 58.9566 43.3364C58.3798 43.5915 57.7843 43.731 57.1697 43.7552C51.5552 43.7831 45.9386 43.7998 40.3194 43.8054C41.0595 45.6081 41.8 47.4114 42.5405 49.2153C42.5629 49.2598 42.5629 49.3047 42.5405 49.3493C39.2519 47.4907 35.9508 45.654 32.6374 43.8389C32.4065 43.8327 32.1783 43.8159 31.9527 43.7887C24.8678 43.7895 17.709 43.7895 10.4765 43.7887C8.50048 43.5741 7.04202 42.5915 6.10111 40.8409C5.76264 40.1474 5.57894 39.4161 5.55001 38.6468C5.54616 32.7144 5.55173 26.7239 5.56671 20.6754C5.79349 18.1143 7.13505 16.4674 9.59141 15.7345C9.94952 15.6617 10.3058 15.6115 10.6602 15.5837Z" fill="white"/>
<path fill-rule="evenodd" clip-rule="evenodd" d="M8.22201 20.6755C8.26898 20.6597 8.29125 20.6262 8.28881 20.575C8.50425 20.1865 8.82712 19.9241 9.25741 19.7878C9.9349 19.5794 10.5806 19.6464 11.1946 19.9888C11.4656 20.203 11.6493 20.4765 11.7457 20.8095C12.1429 23.166 12.5437 25.5221 12.9481 27.8775C13.3051 29.7925 13.7226 31.6907 14.2006 33.5721C14.2291 33.5236 14.2625 33.4789 14.3008 33.4381C14.5256 33.0014 14.7483 32.5659 14.9688 32.1317C15.0158 32.1158 15.0381 32.0823 15.0356 32.0312C15.4906 31.1743 15.9359 30.3145 16.3716 29.4519C16.4186 29.436 16.4409 29.4025 16.4384 29.3514C16.6474 28.9657 16.8478 28.5749 17.0396 28.179C17.0866 28.1631 17.1089 28.1296 17.1064 28.0785C17.1779 27.8905 17.2669 27.7118 17.3736 27.5425C17.4206 27.5267 17.4429 27.4932 17.4404 27.442C18.0378 26.2638 18.6446 25.0914 19.2607 23.9248C19.5067 23.4994 19.824 23.1365 20.2126 22.8361C20.9627 22.4338 21.6474 22.5175 22.2667 23.0874C22.3561 23.2104 22.4451 23.3332 22.5339 23.4558C22.5945 23.6271 22.6613 23.7946 22.7343 23.9583C22.9448 24.8464 23.1341 25.7397 23.3021 26.6381C23.7316 28.596 24.3105 30.5054 25.0389 32.3662C25.2483 30.5726 25.5043 28.7861 25.8071 27.0066C26.1167 25.2954 26.5509 23.6206 27.1097 21.9819C27.4116 21.0865 27.8013 20.2379 28.2787 19.4361C28.864 18.7485 29.5933 18.542 30.4664 18.8164C31.6753 19.3495 32.0594 20.2483 31.6187 21.513C31.179 22.3839 30.8227 23.2884 30.5499 24.2263C29.9013 26.6229 29.4226 29.0571 29.1137 31.5287C28.745 34.0117 28.6058 36.5073 28.6962 39.0154C28.7226 39.6955 28.5111 40.2872 28.0616 40.7908C27.7365 41.0595 27.3636 41.1879 26.9427 41.176C26.6817 41.1371 26.4312 41.0645 26.1912 40.9583C25.9692 40.803 25.7466 40.6466 25.5232 40.4893C25.1211 40.0777 24.737 39.6478 24.3709 39.1997C23.2812 37.7456 22.3794 36.1712 21.6655 34.4765C21.1187 33.1664 20.6511 31.8265 20.2627 30.4568C19.0671 32.777 17.8981 35.1106 16.7557 37.4578C16.3466 38.2454 15.879 38.9935 15.3529 39.7021C15.0124 40.1329 14.6283 40.5181 14.2006 40.8578C14.0006 40.9748 13.7891 41.0642 13.566 41.1258C13.2845 41.1808 13.0284 41.1249 12.7978 40.9583C12.4019 40.6287 12.1068 40.2212 11.9127 39.7356C11.427 38.4417 11.0151 37.1241 10.6769 35.7829C9.97768 32.9132 9.37648 30.0212 8.87331 27.1071C8.58743 25.3755 8.29796 23.6449 8.00491 21.9149C7.96582 21.4804 8.03819 21.0673 8.22201 20.6755Z" fill="#0047CB"/>
<path fill-rule="evenodd" clip-rule="evenodd" d="M8.29005 20.575C8.29252 20.6265 8.26995 20.6602 8.22235 20.6762C8.21988 20.6247 8.24245 20.5909 8.29005 20.575Z" fill="#CCACC6"/>
<path fill-rule="evenodd" clip-rule="evenodd" d="M38.1818 21.2112C40.8956 21.1438 42.8161 22.3274 43.9433 24.762C44.5896 26.3749 44.8124 28.0497 44.6113 29.7866C44.3775 32.3426 43.4533 34.6093 41.8391 36.5866C40.1902 38.4088 38.1694 39.0173 35.777 38.4122C34.0527 37.8667 32.8336 36.7557 32.1197 35.0792C31.7037 34.0834 31.4699 33.0449 31.4183 31.9639C31.236 28.8709 32.0599 26.1018 33.8899 23.6565C34.0577 23.5105 34.2024 23.343 34.3241 23.1541C35.3574 22.0133 36.6433 21.3657 38.1818 21.2112Z" fill="#0047CB"/>
<path fill-rule="evenodd" clip-rule="evenodd" d="M49.8721 22.2163C49.9232 22.2188 49.9566 22.1964 49.9723 22.1493C51.0601 21.4243 52.2625 21.1172 53.5795 21.2281C55.6419 21.4237 57.1673 22.423 58.1553 24.2262C58.5755 25.027 58.8594 25.8756 59.007 26.772C59.4986 30.3836 58.6302 33.6217 56.4018 36.4863C54.7208 38.3971 52.6443 39.0279 50.1727 38.3789C48.819 37.9698 47.7779 37.1603 47.0498 35.9503C46.4736 34.9699 46.1176 33.9092 45.981 32.768C45.5515 29.3427 46.3754 26.2721 48.4526 23.5562C48.7939 23.1805 49.1446 22.8176 49.5047 22.4675C49.6323 22.3895 49.7549 22.3057 49.8721 22.2163Z" fill="#0047CB"/>
<path opacity="0.995" fill-rule="evenodd" clip-rule="evenodd" d="M83.5723 21.5129C87.762 21.4885 90.1725 23.5541 90.8034 27.71C91.0546 29.5473 90.9658 31.3673 90.5362 33.1701C89.4457 36.8061 87.0018 38.4531 83.2049 38.1109C80.8719 37.9165 79.1742 36.7831 78.1114 34.7109C77.404 33.0903 77.0757 31.393 77.1261 29.6193C77.0961 28.1131 77.3579 26.6615 77.911 25.2646C79.05 22.8869 80.9371 21.6363 83.5723 21.5129ZM83.9063 25.1306C84.7159 25.1446 85.3225 25.5019 85.7266 26.2026C86.0783 26.9322 86.2787 27.7027 86.3278 28.5139C86.4537 29.9818 86.3535 31.4334 86.0272 32.8686C85.564 34.2204 84.6345 34.7396 83.2383 34.4262C82.5917 34.1401 82.1742 33.6544 81.9858 32.9691C81.8369 32.3979 81.7477 31.8173 81.7186 31.2272C81.6428 30.1765 81.6542 29.1269 81.752 28.0784C81.8165 27.2935 82.0503 26.5677 82.4534 25.9011C82.8265 25.4266 83.3108 25.1698 83.9063 25.1306Z" fill="white"/>
<path opacity="0.994" fill-rule="evenodd" clip-rule="evenodd" d="M73.085 21.5463C74.1528 21.5001 75.2049 21.6006 76.2413 21.8478C76.269 23.1097 76.2636 24.3714 76.2246 25.633C75.3308 25.3622 74.4176 25.2561 73.4858 25.3148C72.4477 25.464 71.6184 25.9608 70.9975 26.8054C70.3111 27.8393 70.0215 28.9782 70.1291 30.2222C70.1698 31.3055 70.5262 32.2657 71.1979 33.1029C72.1317 34.0741 73.273 34.4817 74.6214 34.3256C75.1658 34.2689 75.7002 34.1628 76.2246 34.0074C76.2636 35.269 76.269 36.5307 76.2413 37.7926C74.3458 38.3597 72.4587 38.2983 70.58 37.6084C68.0051 36.5332 66.4076 34.6294 65.7871 31.897C65.4524 30.2306 65.5078 28.578 65.9541 26.9394C66.8508 24.3762 68.5933 22.6845 71.1812 21.8645C71.8121 21.707 72.4467 21.6009 73.085 21.5463Z" fill="white"/>
<path opacity="0.993" fill-rule="evenodd" clip-rule="evenodd" d="M159.29 21.5462C160.359 21.5118 161.417 21.6011 162.463 21.8142C162.504 23.087 162.504 24.3599 162.463 25.6329C161.48 25.3323 160.478 25.2373 159.457 25.3482C158.555 25.5387 157.826 26.0021 157.27 26.7384C156.52 27.8387 156.22 29.0557 156.368 30.3896C156.444 31.5192 156.862 32.4962 157.62 33.3206C158.547 34.1327 159.627 34.4677 160.86 34.3256C161.405 34.2688 161.939 34.1628 162.463 34.0073C162.474 34.5377 162.486 35.0681 162.497 35.5985C162.503 36.3421 162.481 37.0847 162.43 37.8261C160.126 38.4363 157.91 38.2074 155.783 37.1394C153.543 35.7938 152.246 33.8118 151.892 31.1935C151.651 29.5409 151.818 27.9219 152.393 26.3364C153.765 23.4045 156.064 21.8078 159.29 21.5462Z" fill="white"/>
<path opacity="0.994" fill-rule="evenodd" clip-rule="evenodd" d="M93.2918 21.9482C95.081 21.9371 96.8679 21.9483 98.6525 21.9817C99.2931 24.8313 99.8886 27.6898 100.439 30.5571C100.995 27.6722 101.618 24.8025 102.31 21.9482C104.155 21.9371 105.997 21.9483 107.837 21.9817C108.552 27.2401 109.259 32.4992 109.958 37.7591C108.545 37.7591 107.13 37.7591 105.717 37.7591C105.365 34.1841 104.991 30.611 104.598 27.0399C103.735 30.6131 102.872 34.1862 102.009 37.7591C101.04 37.7702 100.072 37.7591 99.1034 37.7256C98.1959 34.1524 97.2888 30.5793 96.3813 27.0064C96.0229 30.5681 95.6669 34.13 95.3125 37.6921C93.9671 37.7588 92.6144 37.7811 91.2544 37.7591C91.9174 32.4853 92.5964 27.2151 93.2918 21.9482Z" fill="white"/>
<path opacity="0.994" fill-rule="evenodd" clip-rule="evenodd" d="M112.497 21.9482C114.297 21.9371 116.095 21.9483 117.891 21.9817C118.528 24.8413 119.119 27.7109 119.661 30.5906C120.22 27.6941 120.849 24.8133 121.548 21.9482C123.385 21.9482 125.222 21.9482 127.059 21.9482C127.76 27.2185 128.462 32.4888 129.163 37.7591C127.752 37.7701 126.344 37.759 124.938 37.7256C124.569 34.1736 124.191 30.6228 123.803 27.0734C122.94 30.6331 122.088 34.1951 121.247 37.7591C120.279 37.7702 119.31 37.7591 118.342 37.7256C117.424 34.155 116.516 30.582 115.62 27.0064C115.253 30.5905 114.891 34.1747 114.534 37.7591C113.187 37.7591 111.84 37.7591 110.493 37.7591C111.155 32.488 111.823 27.2178 112.497 21.9482Z" fill="white"/>
<path opacity="0.993" fill-rule="evenodd" clip-rule="evenodd" d="M140.219 21.9482C142.183 21.9396 144.143 21.9564 146.097 21.9985C147.518 22.0677 148.809 22.5032 149.971 23.3049C151.35 24.4596 151.868 25.9279 151.525 27.7098C151.286 28.6634 150.791 29.4506 150.038 30.0714C149.73 30.2871 149.418 30.4937 149.103 30.6911C150.218 33.0464 151.343 35.3968 152.476 37.7423C150.973 37.7647 149.47 37.7647 147.967 37.7423C146.819 35.3538 145.666 32.9698 144.511 30.5906C144.505 31.4137 144.488 32.2344 144.46 33.0527C144.485 34.5495 144.491 36.1071 144.477 37.7256C143.049 37.759 141.618 37.7701 140.185 37.7591C140.174 32.4864 140.185 27.2161 140.219 21.9482ZM144.46 25.03C145.055 25.0335 145.634 25.1284 146.197 25.3147C146.732 25.5382 147.06 25.9346 147.183 26.5039C147.31 27.0306 147.232 27.5218 146.949 27.9778C146.588 28.3236 146.159 28.5413 145.663 28.631C145.265 28.6972 144.864 28.7363 144.46 28.7482C144.46 27.5088 144.46 26.2694 144.46 25.03Z" fill="white"/>
<path opacity="0.995" fill-rule="evenodd" clip-rule="evenodd" d="M163.666 21.9482C166.467 21.9559 169.34 21.9559 172.283 21.9482C172.283 23.0872 172.283 24.2261 172.283 25.365C170.824 25.365 169.366 25.365 167.907 25.365C167.907 26.3141 167.907 27.2632 167.907 28.2123C169.166 28.2123 170.423 28.2123 171.682 28.2123C171.693 29.3146 171.682 30.4144 171.648 31.5118C170.402 31.5281 169.155 31.5337 167.907 31.5285C167.907 32.4776 167.907 33.4267 167.907 34.3758C169.366 34.3758 170.824 34.3758 172.283 34.3758C172.283 35.5036 172.283 36.6313 172.283 37.7591C169.41 37.7591 166.538 37.7591 163.666 37.7591C163.666 32.4888 163.666 27.2185 163.666 21.9482Z" fill="white"/>
<path opacity="0.993" fill-rule="evenodd" clip-rule="evenodd" d="M131.268 21.9819C133.84 21.9819 136.411 21.9819 138.983 21.9819C138.983 23.1097 138.983 24.2374 138.983 25.3652C137.536 25.3652 136.088 25.3652 134.641 25.3652C134.641 26.3255 134.641 27.2857 134.641 28.246C135.899 28.246 137.157 28.246 138.415 28.246C138.415 29.3402 138.415 30.4345 138.415 31.5287C137.157 31.5287 135.899 31.5287 134.641 31.5287C134.641 32.489 134.641 33.4492 134.641 34.4095C136.1 34.4095 137.558 34.4095 139.017 34.4095C139.017 35.5373 139.017 36.665 139.017 37.7928C136.133 37.7928 133.249 37.7928 130.366 37.7928C130.375 32.5263 130.364 27.2672 130.333 22.0154C130.65 22.0264 130.962 22.0152 131.268 21.9819Z" fill="white"/>
<path fill-rule="evenodd" clip-rule="evenodd" d="M49.9736 22.1494C49.9577 22.1968 49.9239 22.2193 49.8721 22.2168C49.888 22.1694 49.9218 22.1469 49.9736 22.1494Z" fill="#CCACC6"/>
<path fill-rule="evenodd" clip-rule="evenodd" d="M38.4827 25.0971C39.1483 25.0485 39.655 25.3053 40.0024 25.8676C40.7335 27.1638 40.9673 28.5484 40.7038 30.0213C40.5438 31.1618 40.154 32.2114 39.5348 33.17C39.168 33.6384 38.7395 34.0348 38.2489 34.3592C38.0634 34.4466 37.8742 34.5248 37.6811 34.5937C37.1283 34.7343 36.6607 34.5947 36.2783 34.175C36.1309 34.0104 36.0029 33.8317 35.8942 33.639C35.0701 31.8022 35.0367 29.9487 35.794 28.0784C36.1103 27.354 36.5111 26.6841 36.9964 26.0685C37.3909 25.5783 37.8863 25.2545 38.4827 25.0971Z" fill="white"/>
<path fill-rule="evenodd" clip-rule="evenodd" d="M52.9445 25.097C53.7347 25.0747 54.2972 25.4208 54.6312 26.1354C55.1773 27.2337 55.3777 28.395 55.2324 29.6191C55.1055 30.8925 54.7047 32.0649 54.03 33.1364C53.6756 33.6035 53.2581 33.9998 52.7775 34.3255C51.7922 34.8987 51.0073 34.7033 50.4228 33.7393C49.6442 32.1058 49.522 30.4197 50.0554 28.6812C50.3727 27.6867 50.8627 26.7934 51.525 26.0014C51.9194 25.5649 52.3927 25.2634 52.9445 25.097Z" fill="white"/>
<path fill-rule="evenodd" clip-rule="evenodd" d="M17.4414 27.4419C17.4439 27.4934 17.4213 27.5272 17.3737 27.5431C17.3712 27.4916 17.3938 27.4579 17.4414 27.4419Z" fill="#CCACC6"/>
<path fill-rule="evenodd" clip-rule="evenodd" d="M17.1074 28.0784C17.1099 28.1299 17.0873 28.1636 17.0397 28.1796C17.0373 28.1281 17.0598 28.0943 17.1074 28.0784Z" fill="#CCACC6"/>
<path fill-rule="evenodd" clip-rule="evenodd" d="M16.4395 29.3513C16.4419 29.4028 16.4194 29.4366 16.3718 29.4526C16.3693 29.401 16.3919 29.3673 16.4395 29.3513Z" fill="#CCACC6"/>
<path fill-rule="evenodd" clip-rule="evenodd" d="M15.0366 32.0312C15.0391 32.0828 15.0165 32.1165 14.9689 32.1325C14.9665 32.081 14.989 32.0472 15.0366 32.0312Z" fill="#CCACC6"/>
</g>
<defs>
<clipPath id="clip0_26_127">
<rect width="167" height="34" fill="white" transform="translate(5.5 15.5)"/>
</clipPath>
</defs>
</svg>
