<svg width="178" height="67" viewBox="0 0 178 67" fill="none" xmlns="http://www.w3.org/2000/svg">
<g clip-path="url(#clip0_26_127)">
<path fill-rule="evenodd" clip-rule="evenodd" d="M10.6602 16.5837C26.0835 16.5838 41.4978 16.5838 56.9025 16.5837C59.2368 16.7489 60.8514 17.9102 61.7455 20.0675C61.9038 20.5125 62.004 20.9703 62.0461 21.4409C62.0685 27.6044 62.0685 33.768 62.0461 39.9315C61.8009 41.9601 60.7712 43.4284 58.9566 44.3364C58.3798 44.5915 57.7843 44.731 57.1697 44.7552C51.5552 44.7831 45.9386 44.7998 40.3194 44.8054C41.0596 46.6081 41.8 48.4114 42.5405 50.2153C42.5629 50.2598 42.5629 50.3047 42.5405 50.3493C39.2519 48.4907 35.9508 46.654 32.6374 44.8389C32.4065 44.8327 32.1783 44.8159 31.9527 44.7887C24.8678 44.7895 17.709 44.7895 10.4765 44.7887C8.50048 44.5741 7.04202 43.5915 6.10111 41.8409C5.76264 41.1474 5.57894 40.4161 5.55001 39.6468C5.54616 33.7144 5.55173 27.7239 5.56671 21.6754C5.79349 19.1143 7.13505 17.4674 9.59141 16.7345C9.94952 16.6617 10.3058 16.6115 10.6602 16.5837Z" fill="#2C2C2C"/>
<path fill-rule="evenodd" clip-rule="evenodd" d="M8.22201 21.6755C8.26898 21.6597 8.29125 21.6262 8.28881 21.575C8.50425 21.1865 8.82712 20.9241 9.25741 20.7878C9.9349 20.5794 10.5806 20.6464 11.1946 20.9888C11.4656 21.203 11.6493 21.4765 11.7457 21.8095C12.1429 24.166 12.5437 26.5221 12.9481 28.8775C13.3051 30.7925 13.7226 32.6907 14.2006 34.5721C14.2291 34.5236 14.2625 34.4789 14.3008 34.4381C14.5256 34.0014 14.7483 33.5659 14.9688 33.1317C15.0158 33.1158 15.0381 33.0823 15.0356 33.0312C15.4906 32.1743 15.9359 31.3145 16.3716 30.4519C16.4186 30.436 16.4409 30.4025 16.4384 30.3514C16.6474 29.9657 16.8478 29.5749 17.0396 29.179C17.0866 29.1631 17.1089 29.1296 17.1064 29.0785C17.1779 28.8905 17.2669 28.7118 17.3736 28.5425C17.4206 28.5267 17.4429 28.4932 17.4404 28.442C18.0378 27.2638 18.6446 26.0914 19.2607 24.9248C19.5067 24.4994 19.824 24.1365 20.2126 23.8361C20.9627 23.4338 21.6474 23.5175 22.2667 24.0874C22.3561 24.2104 22.4451 24.3332 22.5339 24.4558C22.5945 24.6271 22.6613 24.7946 22.7343 24.9583C22.9448 25.8464 23.1341 26.7397 23.3021 27.6381C23.7316 29.596 24.3105 31.5054 25.0389 33.3662C25.2483 31.5726 25.5043 29.7861 25.8071 28.0066C26.1167 26.2954 26.5509 24.6206 27.1097 22.9819C27.4116 22.0865 27.8013 21.2379 28.2787 20.4361C28.864 19.7485 29.5933 19.542 30.4664 19.8164C31.6753 20.3495 32.0594 21.2483 31.6187 22.513C31.179 23.3839 30.8227 24.2884 30.5499 25.2263C29.9014 27.6229 29.4226 30.0571 29.1137 32.5287C28.745 35.0117 28.6058 37.5073 28.6962 40.0154C28.7226 40.6955 28.5111 41.2872 28.0616 41.7908C27.7365 42.0595 27.3636 42.1879 26.9427 42.176C26.6817 42.1371 26.4312 42.0645 26.1912 41.9583C25.9692 41.803 25.7466 41.6466 25.5232 41.4893C25.1211 41.0777 24.737 40.6478 24.3709 40.1997C23.2812 38.7456 22.3794 37.1712 21.6655 35.4765C21.1187 34.1664 20.6511 32.8265 20.2627 31.4568C19.0671 33.777 17.8981 36.1106 16.7557 38.4578C16.3466 39.2454 15.879 39.9935 15.3529 40.7021C15.0124 41.1329 14.6283 41.5181 14.2006 41.8578C14.0006 41.9748 13.7891 42.0642 13.566 42.1258C13.2845 42.1808 13.0284 42.1249 12.7978 41.9583C12.4019 41.6287 12.1068 41.2212 11.9127 40.7356C11.427 39.4417 11.0151 38.1241 10.6769 36.7829C9.97768 33.9132 9.37648 31.0212 8.87331 28.1071C8.58743 26.3755 8.29796 24.6449 8.00491 22.9149C7.96582 22.4804 8.03819 22.0673 8.22201 21.6755Z" fill="white"/>
<path fill-rule="evenodd" clip-rule="evenodd" d="M8.29005 21.575C8.29252 21.6265 8.26995 21.6602 8.22235 21.6762C8.21988 21.6247 8.24245 21.5909 8.29005 21.575Z" fill="#CCACC6"/>
<path fill-rule="evenodd" clip-rule="evenodd" d="M38.1818 22.2112C40.8956 22.1438 42.8161 23.3274 43.9433 25.762C44.5896 27.3749 44.8124 29.0497 44.6113 30.7866C44.3775 33.3426 43.4533 35.6093 41.8391 37.5866C40.1902 39.4088 38.1694 40.0173 35.777 39.4122C34.0527 38.8667 32.8336 37.7557 32.1197 36.0792C31.7037 35.0834 31.4699 34.0449 31.4183 32.9639C31.236 29.8709 32.0599 27.1018 33.8899 24.6565C34.0577 24.5105 34.2024 24.343 34.3241 24.1541C35.3574 23.0133 36.6433 22.3657 38.1818 22.2112Z" fill="white"/>
<path fill-rule="evenodd" clip-rule="evenodd" d="M49.8721 23.2163C49.9232 23.2188 49.9566 23.1964 49.9723 23.1493C51.0601 22.4243 52.2625 22.1172 53.5795 22.2281C55.6419 22.4237 57.1673 23.423 58.1553 25.2262C58.5755 26.027 58.8594 26.8756 59.007 27.772C59.4986 31.3836 58.6302 34.6217 56.4018 37.4863C54.7208 39.3971 52.6443 40.0279 50.1727 39.3789C48.819 38.9698 47.7779 38.1603 47.0498 36.9503C46.4736 35.9699 46.1176 34.9092 45.981 33.768C45.5515 30.3427 46.3754 27.2721 48.4526 24.5562C48.7939 24.1805 49.1446 23.8176 49.5047 23.4675C49.6323 23.3895 49.7549 23.3057 49.8721 23.2163Z" fill="white"/>
<path opacity="0.995" fill-rule="evenodd" clip-rule="evenodd" d="M83.5723 22.5129C87.762 22.4885 90.1725 24.5541 90.8034 28.71C91.0546 30.5473 90.9658 32.3673 90.5362 34.1701C89.4457 37.8061 87.0018 39.4531 83.2049 39.1109C80.8719 38.9165 79.1742 37.7831 78.1114 35.7109C77.404 34.0903 77.0757 32.393 77.1261 30.6193C77.0961 29.1131 77.3579 27.6615 77.911 26.2646C79.05 23.8869 80.9371 22.6363 83.5723 22.5129ZM83.9063 26.1306C84.7159 26.1446 85.3225 26.5019 85.7266 27.2026C86.0783 27.9322 86.2787 28.7027 86.3278 29.5139C86.4537 30.9818 86.3535 32.4334 86.0272 33.8686C85.564 35.2204 84.6345 35.7396 83.2383 35.4262C82.5917 35.1401 82.1742 34.6544 81.9858 33.9691C81.8369 33.3979 81.7477 32.8173 81.7186 32.2272C81.6428 31.1765 81.6542 30.1269 81.752 29.0784C81.8165 28.2935 82.0503 27.5677 82.4534 26.9011C82.8265 26.4266 83.3108 26.1698 83.9063 26.1306Z" fill="#2C2C2C"/>
<path opacity="0.994" fill-rule="evenodd" clip-rule="evenodd" d="M73.085 22.5463C74.1528 22.5001 75.2049 22.6006 76.2413 22.8478C76.269 24.1097 76.2636 25.3714 76.2246 26.633C75.3308 26.3622 74.4176 26.2561 73.4858 26.3148C72.4477 26.464 71.6184 26.9608 70.9975 27.8054C70.3111 28.8393 70.0215 29.9782 70.1291 31.2222C70.1698 32.3055 70.5262 33.2657 71.1979 34.1029C72.1317 35.0741 73.273 35.4817 74.6214 35.3256C75.1658 35.2689 75.7002 35.1628 76.2246 35.0074C76.2636 36.269 76.269 37.5307 76.2413 38.7926C74.3458 39.3597 72.4587 39.2983 70.58 38.6084C68.0051 37.5332 66.4076 35.6294 65.7871 32.897C65.4524 31.2306 65.5078 29.578 65.9541 27.9394C66.8508 25.3762 68.5933 23.6845 71.1812 22.8645C71.8121 22.707 72.4467 22.6009 73.085 22.5463Z" fill="#2C2C2C"/>
<path opacity="0.993" fill-rule="evenodd" clip-rule="evenodd" d="M159.29 22.5462C160.359 22.5118 161.417 22.6011 162.463 22.8142C162.504 24.087 162.504 25.3599 162.463 26.6329C161.48 26.3323 160.478 26.2373 159.457 26.3482C158.555 26.5387 157.826 27.0021 157.27 27.7384C156.52 28.8387 156.22 30.0557 156.368 31.3896C156.444 32.5192 156.862 33.4962 157.62 34.3206C158.547 35.1327 159.627 35.4677 160.86 35.3256C161.405 35.2688 161.939 35.1628 162.463 35.0073C162.474 35.5377 162.486 36.0681 162.497 36.5985C162.503 37.3421 162.481 38.0847 162.43 38.826C160.126 39.4363 157.91 39.2074 155.783 38.1394C153.543 36.7938 152.246 34.8118 151.892 32.1935C151.651 30.5409 151.818 28.9219 152.393 27.3364C153.765 24.4045 156.064 22.8078 159.29 22.5462Z" fill="#2C2C2C"/>
<path opacity="0.994" fill-rule="evenodd" clip-rule="evenodd" d="M93.2918 22.9482C95.081 22.9371 96.8679 22.9483 98.6525 22.9817C99.2931 25.8313 99.8886 28.6898 100.439 31.5571C100.995 28.6722 101.618 25.8025 102.31 22.9482C104.155 22.9371 105.997 22.9483 107.837 22.9817C108.552 28.2401 109.259 33.4992 109.958 38.7591C108.545 38.7591 107.13 38.7591 105.717 38.7591C105.365 35.1841 104.991 31.611 104.598 28.0399C103.735 31.6131 102.872 35.1862 102.009 38.7591C101.04 38.7702 100.072 38.7591 99.1034 38.7256C98.1959 35.1524 97.2888 31.5793 96.3813 28.0064C96.0229 31.5681 95.6669 35.13 95.3125 38.6921C93.9671 38.7588 92.6144 38.7811 91.2544 38.7591C91.9174 33.4853 92.5964 28.2151 93.2918 22.9482Z" fill="#2C2C2C"/>
<path opacity="0.994" fill-rule="evenodd" clip-rule="evenodd" d="M112.497 22.9482C114.297 22.9371 116.095 22.9483 117.891 22.9817C118.528 25.8413 119.119 28.7109 119.661 31.5906C120.22 28.6941 120.849 25.8133 121.548 22.9482C123.385 22.9482 125.222 22.9482 127.059 22.9482C127.76 28.2185 128.462 33.4888 129.163 38.7591C127.752 38.7701 126.344 38.759 124.938 38.7256C124.569 35.1736 124.191 31.6228 123.803 28.0734C122.94 31.6331 122.088 35.1951 121.247 38.7591C120.279 38.7702 119.31 38.7591 118.342 38.7256C117.424 35.155 116.516 31.582 115.62 28.0064C115.253 31.5905 114.891 35.1747 114.534 38.7591C113.187 38.7591 111.84 38.7591 110.493 38.7591C111.155 33.488 111.823 28.2178 112.497 22.9482Z" fill="#2C2C2C"/>
<path opacity="0.993" fill-rule="evenodd" clip-rule="evenodd" d="M140.219 22.9482C142.183 22.9396 144.143 22.9564 146.097 22.9985C147.518 23.0677 148.809 23.5032 149.971 24.3049C151.35 25.4596 151.868 26.9279 151.525 28.7098C151.286 29.6634 150.791 30.4506 150.038 31.0714C149.73 31.2871 149.418 31.4937 149.103 31.6911C150.218 34.0464 151.343 36.3968 152.476 38.7423C150.973 38.7647 149.47 38.7647 147.967 38.7423C146.819 36.3538 145.666 33.9698 144.511 31.5906C144.505 32.4137 144.488 33.2344 144.46 34.0527C144.485 35.5495 144.491 37.1071 144.477 38.7256C143.049 38.759 141.618 38.7701 140.185 38.7591C140.174 33.4864 140.185 28.2161 140.219 22.9482ZM144.46 26.03C145.055 26.0335 145.634 26.1284 146.197 26.3147C146.732 26.5382 147.06 26.9346 147.183 27.5039C147.31 28.0306 147.232 28.5218 146.949 28.9778C146.588 29.3236 146.159 29.5413 145.663 29.631C145.265 29.6972 144.864 29.7363 144.46 29.7482C144.46 28.5088 144.46 27.2694 144.46 26.03Z" fill="#2C2C2C"/>
<path opacity="0.995" fill-rule="evenodd" clip-rule="evenodd" d="M163.666 22.9482C166.467 22.9559 169.34 22.9559 172.283 22.9482C172.283 24.0872 172.283 25.2261 172.283 26.365C170.824 26.365 169.366 26.365 167.907 26.365C167.907 27.3141 167.907 28.2632 167.907 29.2123C169.166 29.2123 170.423 29.2123 171.682 29.2123C171.693 30.3146 171.682 31.4144 171.648 32.5118C170.402 32.5281 169.155 32.5337 167.907 32.5285C167.907 33.4776 167.907 34.4267 167.907 35.3758C169.366 35.3758 170.824 35.3758 172.283 35.3758C172.283 36.5036 172.283 37.6313 172.283 38.7591C169.41 38.7591 166.538 38.7591 163.666 38.7591C163.666 33.4888 163.666 28.2185 163.666 22.9482Z" fill="#2C2C2C"/>
<path opacity="0.993" fill-rule="evenodd" clip-rule="evenodd" d="M131.268 22.9819C133.84 22.9819 136.411 22.9819 138.983 22.9819C138.983 24.1097 138.983 25.2374 138.983 26.3652C137.536 26.3652 136.088 26.3652 134.641 26.3652C134.641 27.3255 134.641 28.2857 134.641 29.246C135.899 29.246 137.157 29.246 138.415 29.246C138.415 30.3402 138.415 31.4345 138.415 32.5287C137.157 32.5287 135.899 32.5287 134.641 32.5287C134.641 33.489 134.641 34.4492 134.641 35.4095C136.1 35.4095 137.558 35.4095 139.017 35.4095C139.017 36.5373 139.017 37.665 139.017 38.7928C136.133 38.7928 133.249 38.7928 130.366 38.7928C130.375 33.5263 130.364 28.2672 130.333 23.0154C130.65 23.0264 130.962 23.0152 131.268 22.9819Z" fill="#2C2C2C"/>
<path fill-rule="evenodd" clip-rule="evenodd" d="M49.9736 23.1494C49.9577 23.1968 49.9239 23.2193 49.8721 23.2168C49.888 23.1694 49.9218 23.1469 49.9736 23.1494Z" fill="#CCACC6"/>
<path fill-rule="evenodd" clip-rule="evenodd" d="M38.4827 26.0971C39.1483 26.0485 39.655 26.3053 40.0024 26.8676C40.7335 28.1638 40.9673 29.5484 40.7038 31.0213C40.5438 32.1618 40.154 33.2114 39.5348 34.17C39.168 34.6384 38.7395 35.0348 38.2489 35.3592C38.0634 35.4466 37.8742 35.5248 37.6811 35.5937C37.1283 35.7343 36.6607 35.5947 36.2783 35.1749C36.1309 35.0104 36.0029 34.8317 35.8942 34.639C35.0701 32.8022 35.0367 30.9487 35.794 29.0784C36.1103 28.354 36.5111 27.6841 36.9964 27.0685C37.3909 26.5783 37.8863 26.2545 38.4827 26.0971Z" fill="#2C2C2C"/>
<path fill-rule="evenodd" clip-rule="evenodd" d="M52.9445 26.097C53.7347 26.0747 54.2972 26.4208 54.6312 27.1354C55.1773 28.2337 55.3777 29.395 55.2324 30.6191C55.1055 31.8925 54.7047 33.0649 54.03 34.1364C53.6756 34.6035 53.2581 34.9998 52.7775 35.3255C51.7922 35.8987 51.0073 35.7033 50.4228 34.7393C49.6442 33.1058 49.522 31.4197 50.0554 29.6812C50.3727 28.6867 50.8627 27.7934 51.525 27.0014C51.9194 26.5649 52.3927 26.2634 52.9445 26.097Z" fill="#2C2C2C"/>
<path fill-rule="evenodd" clip-rule="evenodd" d="M17.4414 28.4419C17.4439 28.4934 17.4213 28.5272 17.3737 28.5431C17.3712 28.4916 17.3938 28.4579 17.4414 28.4419Z" fill="#CCACC6"/>
<path fill-rule="evenodd" clip-rule="evenodd" d="M17.1074 29.0784C17.1099 29.1299 17.0873 29.1636 17.0397 29.1796C17.0373 29.1281 17.0598 29.0943 17.1074 29.0784Z" fill="#CCACC6"/>
<path fill-rule="evenodd" clip-rule="evenodd" d="M16.4395 30.3513C16.4419 30.4028 16.4194 30.4366 16.3718 30.4526C16.3693 30.401 16.3919 30.3673 16.4395 30.3513Z" fill="#CCACC6"/>
<path fill-rule="evenodd" clip-rule="evenodd" d="M15.0366 33.0312C15.0391 33.0828 15.0165 33.1165 14.9689 33.1325C14.9665 33.081 14.989 33.0472 15.0366 33.0312Z" fill="#CCACC6"/>
</g>
<defs>
<clipPath id="clip0_26_127">
<rect width="167" height="34" fill="white" transform="translate(5.5 16.5)"/>
</clipPath>
</defs>
</svg>
