<svg width="168" height="67" viewBox="0 0 168 67" fill="none" xmlns="http://www.w3.org/2000/svg">
<path d="M93.973 29.6788H88.0594V30.3052C89.9137 30.3052 90.2019 30.7061 90.2019 33.049V37.2712C90.2019 39.6141 89.9012 40.0401 88.0594 40.0401C86.6437 39.8396 85.679 39.0879 84.3635 37.6346L82.8475 35.9808C84.8897 35.6174 85.9797 34.327 85.9797 32.8736C85.9797 31.057 84.4261 29.6663 81.5194 29.6663H75.7061V30.2927C77.5603 30.2927 77.8485 30.6936 77.8485 33.0365V37.2587C77.8485 39.6016 77.5478 40.0276 75.7061 40.0276V40.654H82.2837V40.0276C80.4294 40.0276 80.1413 39.6016 80.1413 37.2587V36.0685H80.705L84.376 40.654H93.9856C98.7089 40.654 100.751 38.1483 100.751 35.1413C100.751 32.1595 98.6964 29.6788 93.973 29.6788ZM80.1413 35.0662V30.6686H81.4944C82.9853 30.6686 83.6368 31.6959 83.6368 32.8862C83.6368 34.0388 82.9728 35.0662 81.4944 35.0662H80.1413ZM94.0733 39.6517H93.8477C92.6575 39.6517 92.4946 39.351 92.4946 37.835V30.6686C92.4946 30.6686 93.948 30.6686 94.0858 30.6686C97.5187 30.6686 98.1451 33.1743 98.1451 35.1288C98.1451 37.1459 97.5062 39.6517 94.0733 39.6517Z" fill="#2C2C2C"/>
<path d="M57.3134 36.2814L59.5936 29.5409C60.2576 27.5864 59.9569 27.0351 57.8396 27.0351V26.3711H64.0539V27.0351C61.9741 27.0351 61.4729 27.5363 60.646 29.9418L56.8874 41.2428H56.4614L53.0912 30.9065L49.6457 41.2428H49.2198L45.5488 29.9418C44.7595 27.5363 44.2333 27.0351 42.3164 27.0351V26.3711H49.6457V27.0351C47.6913 27.0351 47.1651 27.4987 47.8667 29.5409L50.0843 36.2814L53.4169 26.3711H54.0434L57.3134 36.2814Z" fill="#2C2C2C"/>
<path d="M68.5397 41.105C64.9063 41.105 61.937 38.4238 61.937 35.1538C61.937 31.9214 64.9063 29.2402 68.5397 29.2402C72.173 29.2402 75.1424 31.9214 75.1424 35.1538C75.1549 38.4364 72.173 41.105 68.5397 41.105ZM68.5397 30.2801C65.4952 30.2801 64.4428 33.0239 64.4428 35.1664C64.4428 37.3464 65.4952 40.0526 68.5397 40.0526C71.6092 40.0526 72.6742 37.3464 72.6742 35.1664C72.6742 33.0114 71.6092 30.2801 68.5397 30.2801Z" fill="#2C2C2C"/>
<path d="M108.907 40.0149V40.679H101.34V40.0149C103.557 40.0149 103.946 39.4512 103.946 36.1561V30.8689C103.946 27.5613 103.545 27.0351 101.34 27.0351V26.3711H108.181C111.588 26.3711 113.468 28.1251 113.468 30.468C113.468 32.7482 111.588 34.5273 108.181 34.5273H106.301V36.1435C106.301 39.4512 106.69 40.0149 108.907 40.0149ZM108.181 27.5613H106.301V33.312H108.181C110.035 33.312 110.887 32.0216 110.887 30.468C110.887 28.8894 110.035 27.5613 108.181 27.5613Z" fill="#2C2C2C"/>
<path d="M136.157 37.5719L135.994 38.1607C135.693 39.2507 135.33 39.6516 132.987 39.6516H132.524C130.807 39.6516 130.506 39.2507 130.506 36.9078V35.3918C133.087 35.3918 133.275 35.6174 133.275 37.3463H133.902V32.4225H133.275C133.275 34.139 133.075 34.377 130.506 34.377V30.681H132.323C134.666 30.681 135.029 31.0819 135.33 32.1719L135.493 32.7984H136.019L135.794 29.6912H126.084V30.3177C127.938 30.3177 128.226 30.7186 128.226 33.0615V37.2837C128.226 39.4261 127.976 39.9648 126.51 40.0526C125.119 39.8396 124.167 39.0878 122.864 37.647L121.348 35.9932C123.39 35.6299 124.48 34.3394 124.48 32.8861C124.48 31.0694 122.927 29.6787 120.02 29.6787H114.207V30.3052C116.061 30.3052 116.349 30.7061 116.349 33.049V37.2712C116.349 39.614 116.048 40.04 114.207 40.04V40.6665H120.784V40.04C118.93 40.04 118.642 39.614 118.642 37.2712V36.0809H119.206L122.876 40.6665H136.458L136.658 37.5593H136.157V37.5719ZM118.654 35.0661V30.6685H120.007C121.498 30.6685 122.15 31.6958 122.15 32.8861C122.15 34.0387 121.486 35.0661 120.007 35.0661H118.654Z" fill="#2C2C2C"/>
<path d="M142.86 41.1049C141.545 41.1049 140.38 40.4158 139.891 39.9773C139.728 40.1402 139.427 40.6414 139.365 41.1049H138.738V36.5444H139.402C139.665 38.7245 141.181 40.0149 143.136 40.0149C144.188 40.0149 145.053 39.4261 145.053 38.4238C145.053 37.5593 144.289 36.9078 142.935 36.2813L141.056 35.3918C139.741 34.7654 138.738 33.6753 138.738 32.222C138.738 30.6309 140.229 29.2777 142.271 29.2777C143.361 29.2777 144.289 29.6787 144.852 30.1422C145.015 30.0044 145.178 29.6411 145.278 29.2527H145.905V33.1491H145.216C144.99 31.5956 144.126 30.3051 142.372 30.3051C141.445 30.3051 140.593 30.8313 140.593 31.6582C140.593 32.5227 141.282 32.9737 142.873 33.7004L144.689 34.5899C146.281 35.3542 146.907 36.5695 146.907 37.5593C146.895 39.6516 145.078 41.1049 142.86 41.1049Z" fill="#2C2C2C"/>
<path d="M152.846 41.1049C151.53 41.1049 150.365 40.4158 149.876 39.9773C149.713 40.1402 149.413 40.6414 149.35 41.1049H148.724V36.5444H149.388C149.651 38.7245 151.167 40.0149 153.121 40.0149C154.174 40.0149 155.038 39.4261 155.038 38.4238C155.038 37.5593 154.274 36.9078 152.921 36.2813L151.041 35.3918C149.726 34.7654 148.724 33.6753 148.724 32.222C148.724 30.6309 150.215 29.2777 152.257 29.2777C153.347 29.2777 154.274 29.6787 154.838 30.1422C155.001 30.0044 155.163 29.6411 155.264 29.2527H155.89V33.1491H155.201C154.976 31.5956 154.111 30.3051 152.357 30.3051C151.43 30.3051 150.578 30.8313 150.578 31.6582C150.578 32.5227 151.267 32.9737 152.858 33.7004L154.675 34.5899C156.266 35.3542 156.892 36.5695 156.892 37.5593C156.88 39.6516 155.063 41.1049 152.846 41.1049Z" fill="#2C2C2C"/>
<path d="M25.9666 19.5429C27.8584 19.5429 29.6876 19.9063 31.4041 20.6455C32.231 20.9963 33.0328 21.4348 33.772 21.9359C34.5112 22.4371 35.2128 23.0134 35.8393 23.6399C36.4657 24.2663 37.042 24.9679 37.5432 25.7071C38.0443 26.4588 38.4828 27.2481 38.8336 28.075C39.5603 29.7915 39.9362 31.6207 39.9362 33.5125C39.9362 35.4044 39.5728 37.2336 38.8336 38.95C38.4828 39.7769 38.0443 40.5788 37.5432 41.318C37.042 42.0572 36.4657 42.7588 35.8393 43.3852C35.2128 44.0117 34.5112 44.588 33.772 45.0891C33.0203 45.5903 32.231 46.0288 31.4041 46.3796C29.6876 47.1063 27.8584 47.4821 25.9666 47.4821C24.0747 47.4821 22.2455 47.1188 20.5291 46.3796C19.7022 46.0288 18.9003 45.5903 18.1611 45.0891C17.4219 44.588 16.7203 44.0117 16.0939 43.3852C15.4674 42.7588 14.8911 42.0572 14.39 41.318C13.8888 40.5663 13.4503 39.7769 13.0995 38.95C12.3728 37.2336 11.997 35.4044 11.997 33.5125C11.997 31.6207 12.3603 29.7915 13.0995 28.075C13.4503 27.2481 13.8888 26.4463 14.39 25.7071C14.8911 24.9679 15.4674 24.2663 16.0939 23.6399C16.7203 23.0134 17.4219 22.4371 18.1611 21.9359C18.9129 21.4348 19.7022 20.9963 20.5291 20.6455C22.2455 19.9063 24.0747 19.5429 25.9666 19.5429ZM25.9666 18.6409C17.7602 18.6409 11.1074 25.2937 11.1074 33.5C11.1074 41.7064 17.7602 48.3592 25.9666 48.3592C34.1729 48.3592 40.8257 41.7064 40.8257 33.5C40.8257 25.3062 34.1729 18.6409 25.9666 18.6409Z" fill="#2C2C2C"/>
<path d="M13.5757 33.5126C13.5757 38.4113 16.4197 42.6586 20.5542 44.6632L14.6532 28.4635C13.9641 30.0045 13.5757 31.7209 13.5757 33.5126ZM34.3234 32.8861C34.3234 31.3576 33.7721 30.2927 33.296 29.4658C32.6696 28.4509 32.0807 27.5864 32.0807 26.5591C32.0807 25.419 32.9452 24.3665 34.1605 24.3665C34.2106 24.3665 34.2732 24.3791 34.3234 24.3791C32.1183 22.3619 29.1866 21.1216 25.9541 21.1216C21.6317 21.1216 17.8229 23.3392 15.6053 26.7094C15.8935 26.722 16.1691 26.722 16.4072 26.722C17.6977 26.722 19.7148 26.5591 19.7148 26.5591C20.3788 26.5215 20.4665 27.4987 19.79 27.5739C19.79 27.5739 19.1134 27.6491 18.3742 27.6867L22.8846 41.105L25.5908 32.9738L23.6739 27.6992C23.0099 27.6616 22.3709 27.5864 22.3709 27.5864C21.7069 27.5489 21.782 26.5215 22.4461 26.5716C22.4461 26.5716 24.4883 26.7345 25.7036 26.7345C26.994 26.7345 29.0112 26.5716 29.0112 26.5716C29.6752 26.534 29.7629 27.5113 29.0863 27.5864C29.0863 27.5864 28.4098 27.6616 27.6706 27.6992L32.1434 41.0173L33.4213 36.9705C33.9976 35.2039 34.3234 33.9511 34.3234 32.8861ZM26.1796 34.59L22.4586 45.3899C23.5737 45.7156 24.7388 45.891 25.9541 45.891C27.3949 45.891 28.7856 45.6404 30.0636 45.1894C30.026 45.1393 30.0009 45.0766 29.9759 45.014L26.1796 34.59ZM36.8291 27.5739C36.8792 27.9623 36.9168 28.3883 36.9168 28.8518C36.9168 30.1047 36.6788 31.5205 35.9772 33.287L32.1935 44.2121C35.8769 42.0697 38.3576 38.073 38.3576 33.5C38.3576 31.3576 37.8064 29.3279 36.8291 27.5739Z" fill="#2C2C2C"/>
</svg>
