<svg width="168" height="65" viewBox="0 0 168 65" fill="none" xmlns="http://www.w3.org/2000/svg">
<path d="M93.973 28.6788H88.0594V29.3052C89.9137 29.3052 90.2019 29.7061 90.2019 32.049V36.2712C90.2019 38.6141 89.9012 39.0401 88.0594 39.0401C86.6437 38.8396 85.679 38.0879 84.3635 36.6346L82.8475 34.9808C84.8897 34.6174 85.9797 33.327 85.9797 31.8736C85.9797 30.057 84.4261 28.6663 81.5194 28.6663H75.7061V29.2927C77.5603 29.2927 77.8485 29.6936 77.8485 32.0365V36.2587C77.8485 38.6016 77.5478 39.0276 75.7061 39.0276V39.654H82.2837V39.0276C80.4294 39.0276 80.1413 38.6016 80.1413 36.2587V35.0685H80.705L84.376 39.654H93.9856C98.7089 39.654 100.751 37.1483 100.751 34.1413C100.751 31.1595 98.6964 28.6788 93.973 28.6788ZM80.1413 34.0662V29.6686H81.4944C82.9853 29.6686 83.6368 30.6959 83.6368 31.8862C83.6368 33.0388 82.9728 34.0662 81.4944 34.0662H80.1413ZM94.0733 38.6517H93.8477C92.6575 38.6517 92.4946 38.351 92.4946 36.835V29.6686C92.4946 29.6686 93.948 29.6686 94.0858 29.6686C97.5187 29.6686 98.1451 32.1743 98.1451 34.1288C98.1451 36.1459 97.5062 38.6517 94.0733 38.6517Z" fill="white"/>
<path d="M57.3134 35.2814L59.5936 28.5409C60.2576 26.5864 59.9569 26.0351 57.8396 26.0351V25.3711H64.0539V26.0351C61.9741 26.0351 61.4729 26.5363 60.646 28.9418L56.8874 40.2428H56.4614L53.0912 29.9065L49.6457 40.2428H49.2198L45.5488 28.9418C44.7595 26.5363 44.2333 26.0351 42.3164 26.0351V25.3711H49.6457V26.0351C47.6913 26.0351 47.1651 26.4987 47.8667 28.5409L50.0843 35.2814L53.4169 25.3711H54.0434L57.3134 35.2814Z" fill="white"/>
<path d="M68.5397 40.105C64.9063 40.105 61.937 37.4238 61.937 34.1538C61.937 30.9214 64.9063 28.2402 68.5397 28.2402C72.173 28.2402 75.1424 30.9214 75.1424 34.1538C75.1549 37.4364 72.173 40.105 68.5397 40.105ZM68.5397 29.2801C65.4952 29.2801 64.4428 32.0239 64.4428 34.1664C64.4428 36.3464 65.4952 39.0526 68.5397 39.0526C71.6092 39.0526 72.6742 36.3464 72.6742 34.1664C72.6742 32.0114 71.6092 29.2801 68.5397 29.2801Z" fill="white"/>
<path d="M108.907 39.0149V39.679H101.34V39.0149C103.557 39.0149 103.946 38.4512 103.946 35.1561V29.8689C103.946 26.5613 103.545 26.0351 101.34 26.0351V25.3711H108.181C111.588 25.3711 113.468 27.1251 113.468 29.468C113.468 31.7482 111.588 33.5273 108.181 33.5273H106.301V35.1435C106.301 38.4512 106.69 39.0149 108.907 39.0149ZM108.181 26.5613H106.301V32.312H108.181C110.035 32.312 110.887 31.0216 110.887 29.468C110.887 27.8894 110.035 26.5613 108.181 26.5613Z" fill="white"/>
<path d="M136.157 36.5719L135.994 37.1607C135.693 38.2507 135.33 38.6516 132.987 38.6516H132.524C130.807 38.6516 130.506 38.2507 130.506 35.9078V34.3918C133.087 34.3918 133.275 34.6174 133.275 36.3463H133.902V31.4225H133.275C133.275 33.139 133.075 33.377 130.506 33.377V29.681H132.323C134.666 29.681 135.029 30.0819 135.33 31.1719L135.493 31.7984H136.019L135.794 28.6912H126.084V29.3177C127.938 29.3177 128.226 29.7186 128.226 32.0615V36.2837C128.226 38.4261 127.976 38.9648 126.51 39.0526C125.119 38.8396 124.167 38.0878 122.864 36.647L121.348 34.9932C123.39 34.6299 124.48 33.3394 124.48 31.8861C124.48 30.0694 122.927 28.6787 120.02 28.6787H114.207V29.3052C116.061 29.3052 116.349 29.7061 116.349 32.049V36.2712C116.349 38.614 116.048 39.04 114.207 39.04V39.6665H120.784V39.04C118.93 39.04 118.642 38.614 118.642 36.2712V35.0809H119.206L122.876 39.6665H136.458L136.658 36.5593H136.157V36.5719ZM118.654 34.0661V29.6685H120.007C121.498 29.6685 122.15 30.6958 122.15 31.8861C122.15 33.0387 121.486 34.0661 120.007 34.0661H118.654Z" fill="white"/>
<path d="M142.86 40.1049C141.545 40.1049 140.38 39.4158 139.891 38.9773C139.728 39.1402 139.427 39.6414 139.365 40.1049H138.738V35.5444H139.402C139.665 37.7245 141.181 39.0149 143.136 39.0149C144.188 39.0149 145.053 38.4261 145.053 37.4238C145.053 36.5593 144.289 35.9078 142.935 35.2813L141.056 34.3918C139.741 33.7654 138.738 32.6753 138.738 31.222C138.738 29.6309 140.229 28.2777 142.271 28.2777C143.361 28.2777 144.289 28.6787 144.852 29.1422C145.015 29.0044 145.178 28.6411 145.278 28.2527H145.905V32.1491H145.216C144.99 30.5956 144.126 29.3051 142.372 29.3051C141.445 29.3051 140.593 29.8313 140.593 30.6582C140.593 31.5227 141.282 31.9737 142.873 32.7004L144.689 33.5899C146.281 34.3542 146.907 35.5695 146.907 36.5593C146.895 38.6516 145.078 40.1049 142.86 40.1049Z" fill="white"/>
<path d="M152.846 40.1049C151.53 40.1049 150.365 39.4158 149.876 38.9773C149.713 39.1402 149.413 39.6414 149.35 40.1049H148.724V35.5444H149.388C149.651 37.7245 151.167 39.0149 153.121 39.0149C154.174 39.0149 155.038 38.4261 155.038 37.4238C155.038 36.5593 154.274 35.9078 152.921 35.2813L151.041 34.3918C149.726 33.7654 148.724 32.6753 148.724 31.222C148.724 29.6309 150.215 28.2777 152.257 28.2777C153.347 28.2777 154.274 28.6787 154.838 29.1422C155.001 29.0044 155.163 28.6411 155.264 28.2527H155.89V32.1491H155.201C154.976 30.5956 154.111 29.3051 152.357 29.3051C151.43 29.3051 150.578 29.8313 150.578 30.6582C150.578 31.5227 151.267 31.9737 152.858 32.7004L154.675 33.5899C156.266 34.3542 156.892 35.5695 156.892 36.5593C156.88 38.6516 155.063 40.1049 152.846 40.1049Z" fill="white"/>
<path d="M25.9666 18.5429C27.8584 18.5429 29.6876 18.9063 31.4041 19.6455C32.231 19.9963 33.0328 20.4348 33.772 20.9359C34.5112 21.4371 35.2128 22.0134 35.8393 22.6399C36.4657 23.2663 37.042 23.9679 37.5432 24.7071C38.0443 25.4588 38.4828 26.2481 38.8336 27.075C39.5603 28.7915 39.9362 30.6207 39.9362 32.5125C39.9362 34.4044 39.5728 36.2336 38.8336 37.95C38.4828 38.7769 38.0443 39.5788 37.5432 40.318C37.042 41.0572 36.4657 41.7588 35.8393 42.3852C35.2128 43.0117 34.5112 43.588 33.772 44.0891C33.0203 44.5903 32.231 45.0288 31.4041 45.3796C29.6876 46.1063 27.8584 46.4821 25.9666 46.4821C24.0747 46.4821 22.2455 46.1188 20.5291 45.3796C19.7022 45.0288 18.9003 44.5903 18.1611 44.0891C17.4219 43.588 16.7203 43.0117 16.0939 42.3852C15.4674 41.7588 14.8911 41.0572 14.39 40.318C13.8888 39.5663 13.4503 38.7769 13.0995 37.95C12.3728 36.2336 11.997 34.4044 11.997 32.5125C11.997 30.6207 12.3603 28.7915 13.0995 27.075C13.4503 26.2481 13.8888 25.4463 14.39 24.7071C14.8911 23.9679 15.4674 23.2663 16.0939 22.6399C16.7203 22.0134 17.4219 21.4371 18.1611 20.9359C18.9129 20.4348 19.7022 19.9963 20.5291 19.6455C22.2455 18.9063 24.0747 18.5429 25.9666 18.5429ZM25.9666 17.6409C17.7602 17.6409 11.1074 24.2937 11.1074 32.5C11.1074 40.7064 17.7602 47.3592 25.9666 47.3592C34.1729 47.3592 40.8257 40.7064 40.8257 32.5C40.8257 24.3062 34.1729 17.6409 25.9666 17.6409Z" fill="white"/>
<path d="M13.5757 32.5126C13.5757 37.4113 16.4197 41.6586 20.5542 43.6632L14.6532 27.4635C13.9641 29.0045 13.5757 30.7209 13.5757 32.5126ZM34.3234 31.8861C34.3234 30.3576 33.7721 29.2927 33.296 28.4658C32.6696 27.4509 32.0807 26.5864 32.0807 25.5591C32.0807 24.419 32.9452 23.3665 34.1605 23.3665C34.2106 23.3665 34.2732 23.3791 34.3234 23.3791C32.1183 21.3619 29.1866 20.1216 25.9541 20.1216C21.6317 20.1216 17.8229 22.3392 15.6053 25.7094C15.8935 25.722 16.1691 25.722 16.4072 25.722C17.6977 25.722 19.7148 25.5591 19.7148 25.5591C20.3788 25.5215 20.4665 26.4987 19.79 26.5739C19.79 26.5739 19.1134 26.6491 18.3742 26.6867L22.8846 40.105L25.5908 31.9738L23.6739 26.6992C23.0099 26.6616 22.3709 26.5864 22.3709 26.5864C21.7069 26.5489 21.782 25.5215 22.4461 25.5716C22.4461 25.5716 24.4883 25.7345 25.7036 25.7345C26.994 25.7345 29.0112 25.5716 29.0112 25.5716C29.6752 25.534 29.7629 26.5113 29.0863 26.5864C29.0863 26.5864 28.4098 26.6616 27.6706 26.6992L32.1434 40.0173L33.4213 35.9705C33.9976 34.2039 34.3234 32.9511 34.3234 31.8861ZM26.1796 33.59L22.4586 44.3899C23.5737 44.7156 24.7388 44.891 25.9541 44.891C27.3949 44.891 28.7856 44.6404 30.0636 44.1894C30.026 44.1393 30.0009 44.0766 29.9759 44.014L26.1796 33.59ZM36.8291 26.5739C36.8792 26.9623 36.9168 27.3883 36.9168 27.8518C36.9168 29.1047 36.6788 30.5205 35.9772 32.287L32.1935 43.2121C35.8769 41.0697 38.3576 37.073 38.3576 32.5C38.3576 30.3576 37.8064 28.3279 36.8291 26.5739Z" fill="white"/>
</svg>
